<?xml version="1.0" encoding="utf-8"?>
<!-- Generator: Adobe Illustrator 15.0.0, SVG Export Plug-In . SVG Version: 6.00 Build 0)  -->
<!DOCTYPE svg PUBLIC "-//W3C//DTD SVG 1.1//EN" "http://www.w3.org/Graphics/SVG/1.1/DTD/svg11.dtd">
<svg version="1.1" id="Layer_1" xmlns="http://www.w3.org/2000/svg" xmlns:xlink="http://www.w3.org/1999/xlink" x="0px" y="0px"
	 width="104.86px" height="104.861px" viewBox="0 0 104.86 104.861" enable-background="new 0 0 104.86 104.861"
	 xml:space="preserve">
<circle fill="#DF0024" cx="52.43" cy="52.431" r="52.43"/>
<g>
	<path fill="#FFFFFF" d="M81.747,51.924c0.926-2.354,1.469-4.919,1.469-7.744c0-14.611-13.126-16.643-17.735-16.643
		c-4.611,0-7.12,1.192-9.299,3.204c-1.745,1.61-3.75,4.192-3.75,4.192s-1.987-2.602-3.75-4.192c-2.348-2.12-4.688-3.204-9.298-3.204
		S21.646,29.568,21.646,44.18c0,14.612,14.495,22.309,21.878,29.692c7.383,7.384,8.907,9.455,8.907,9.455s1.524-2.071,8.908-9.455
		c1.331-1.33,2.892-2.672,4.558-4.062C65.897,69.811,78.714,59.063,81.747,51.924z"/>
</g>
</svg>
