<?xml version="1.0" encoding="utf-8"?>
<!-- Generator: Adobe Illustrator 17.0.0, SVG Export Plug-In . SVG Version: 6.00 Build 0)  -->
<!DOCTYPE svg PUBLIC "-//W3C//DTD SVG 1.1//EN" "http://www.w3.org/Graphics/SVG/1.1/DTD/svg11.dtd">
<svg version="1.1" id="Layer_1" xmlns="http://www.w3.org/2000/svg" xmlns:xlink="http://www.w3.org/1999/xlink" x="0px" y="0px"
	 width="104.861px" height="104.861px" viewBox="0 0 104.861 104.861" enable-background="new 0 0 104.861 104.861"
	 xml:space="preserve">
<circle fill="#8D4B95" cx="52.431" cy="52.43" r="52.431"/>
<path fill="#FFFFFF" d="M42.701,48.977"/>
<path fill="#FFFFFF" stroke="#FFFFFF" stroke-width="1.2576" d="M49.61,74.781c12.015,13.478,29.589,12.444,37.479,4.683
	c7.802-7.674,5.73-26.344-6.288-39.824c-12.016-13.478-28.255-16.36-38.147-7.546c-2.059,1.836-3.076,4.043-4.079,6.507
	l-0.125,17.25c0.79,2.581,1.435,4.843,2.865,7.406c0,0,14.802-1.525,21.136-0.025c0,0,10.25,4,2.5,11.25c0,0-4.75,3.5-13.751-0.256
	L49.61,74.781z"/>
<rect x="22.462" y="16.269" fill="#FFFFFF" width="11.58" height="70.832"/>
<path fill="none" stroke="#8D4B95" stroke-width="2" stroke-linecap="round" d="M41.326,40.731c0,0,4.269-8.667,7.792-6.167"/>
<path fill="#FFFFFF" d="M42.117,23.976c-1.271,1.006-1.75,1.25-3.5,4.917c0,0-1.647-13.938,6-12.333
	C44.617,16.56,48.534,18.893,42.117,23.976z"/>
<path fill="#FFFFFF" d="M52.066,23.207c-2.343,0.355-4.617,1.352-6.45,2.269c0,0,10.583-18.084,17.499-10.417
	C63.115,15.059,66.781,20.976,52.066,23.207z"/>
<path fill="#FFFFFF" d="M37.367,65.976c0,0,0.167,8.834,3.917,8.834c0,0,2.083,0.083,1.583-2.5c0,0-1.083-1.75-2.833-3.084
	L37.367,65.976z"/>
<g>
	<path fill="#FFFFFF" stroke="#8D4B95" stroke-width="2" stroke-linecap="round" d="M41.951,51.227c0,0-0.75-1.5,0.501-6.495"/>
	<path fill="#FFFFFF" stroke="#8D4B95" stroke-width="2" stroke-linecap="round" d="M42.047,51.213c0,0,1.404-6.481,7.904-6.481"/>
	<path fill="#FFFFFF" stroke="#8D4B95" stroke-width="2" stroke-linecap="round" d="M41.951,51.227c0,0,8.001-4.745,13.751-0.245"/>
</g>
<path fill="#8D4B95" d="M41.034,51.398l1.333-6.167c0,0,0.5,4.834,6.333,3.834L41.034,51.398z"/>
</svg>
