<?xml version="1.0" encoding="utf-8"?>
<!-- Generator: Adobe Illustrator 17.0.0, SVG Export Plug-In . SVG Version: 6.00 Build 0)  -->
<!DOCTYPE svg PUBLIC "-//W3C//DTD SVG 1.1//EN" "http://www.w3.org/Graphics/SVG/1.1/DTD/svg11.dtd">
<svg version="1.1" id="Ebene_1" xmlns="http://www.w3.org/2000/svg" xmlns:xlink="http://www.w3.org/1999/xlink" x="0px" y="0px"
	 width="37.979px" height="35.705px" viewBox="0 0 37.979 35.705" enable-background="new 0 0 37.979 35.705" xml:space="preserve">
<g>
	<g>
		<defs>
			<rect id="SVGID_1_" x="0" y="0" width="37.979" height="35.705"/>
		</defs>
		<clipPath id="SVGID_2_">
			<use xlink:href="#SVGID_1_"  overflow="visible"/>
		</clipPath>
		<path clip-path="url(#SVGID_2_)" fill="#FFFFFF" d="M29.09,11.531c-0.005-0.041-0.01-0.083-0.016-0.125v-0.01l-0.007-0.076
			l-0.004-0.007c-0.077-0.898,0.209-1.75,0.735-2.401c0.535-0.662,1.321-1.118,2.229-1.209h0.008l0.044-0.004l0.011-0.004
			c0.886-0.072,1.72,0.221,2.354,0.761c0.622,0.526,1.05,1.289,1.144,2.168v0.007l0.005,0.05l0.004,0.01
			c0.048,0.563-0.132,1.099-0.463,1.508c-0.34,0.421-0.842,0.711-1.424,0.77h-0.007l-0.022,0.002l-0.011,0.003
			c-0.571,0.047-1.106-0.141-1.513-0.485v-0.003c-0.393-0.333-0.663-0.815-0.723-1.369V11.11l-0.002-0.025l1.796-0.166l0.001,0.019
			h0.001c0.01,0.095,0.054,0.174,0.113,0.226l0.002-0.002c0.049,0.041,0.112,0.064,0.176,0.059v0.002h0.004v-0.001
			c0.071-0.007,0.138-0.048,0.187-0.109c0.059-0.073,0.091-0.171,0.081-0.278h0.003l-0.004-0.032
			c-0.045-0.42-0.245-0.781-0.534-1.027c-0.274-0.232-0.635-0.359-1.021-0.327V9.446l-0.025,0.003
			c-0.398,0.04-0.747,0.247-0.991,0.55c-0.254,0.313-0.392,0.728-0.353,1.17h-0.004l0.006,0.058h0.001
			c0.08,0.745,0.437,1.386,0.952,1.825c0.503,0.425,1.162,0.657,1.864,0.599v0.003l0.049-0.005v-0.001
			c0.725-0.072,1.357-0.446,1.796-0.989c0.449-0.555,0.693-1.286,0.625-2.063h0.004l-0.01-0.083
			c-0.113-1.07-0.628-1.992-1.373-2.623c-0.729-0.618-1.687-0.956-2.707-0.872V7.016L31.99,7.023l-0.005-0.051H5.993L5.988,7.023
			L5.907,7.016L5.906,7.018C4.886,6.935,3.929,7.272,3.2,7.89c-0.745,0.631-1.259,1.553-1.373,2.623H1.826l-0.008,0.083H1.82
			c-0.067,0.777,0.177,1.508,0.625,2.063c0.439,0.543,1.074,0.917,1.797,0.989v0.001l0.049,0.005v-0.003
			c0.702,0.058,1.361-0.174,1.863-0.599c0.518-0.439,0.874-1.08,0.954-1.825h0.001l0.005-0.058H7.112
			c0.038-0.442-0.1-0.856-0.353-1.17c-0.245-0.303-0.595-0.51-0.993-0.55L5.74,9.446v0.003C5.359,9.417,4.997,9.545,4.721,9.78
			L4.719,9.777c-0.288,0.246-0.488,0.606-0.533,1.025l-0.003,0.033h0.002c-0.009,0.106,0.023,0.205,0.082,0.278
			c0.049,0.061,0.115,0.102,0.185,0.109v0.001h0.005l0.001-0.002c0.063,0.005,0.126-0.018,0.175-0.059l0.001,0.002
			c0.062-0.052,0.104-0.131,0.114-0.226l0.002-0.019l1.797,0.166L6.544,11.11v0.007c-0.059,0.554-0.33,1.036-0.723,1.369v0.003
			c-0.407,0.344-0.942,0.532-1.512,0.485l-0.011-0.003l-0.022-0.002H4.269c-0.582-0.059-1.084-0.349-1.424-0.77
			c-0.331-0.41-0.511-0.945-0.463-1.508l0.004-0.01l0.005-0.051v-0.007c0.093-0.878,0.521-1.641,1.142-2.167V8.452
			C4.167,7.915,5,7.622,5.889,7.695L5.9,7.699l0.044,0.004h0.007C6.859,7.794,7.645,8.25,8.18,8.912
			c0.526,0.651,0.812,1.503,0.734,2.401L8.911,11.32l-0.007,0.076v0.01c-0.005,0.042-0.01,0.084-0.015,0.125l-0.907,2.172
			c-0.19,0.245-0.405,0.47-0.64,0.669c-0.863,0.732-1.995,1.131-3.199,1.033l-0.011-0.004l-0.067-0.005H4.058
			c-1.234-0.125-2.304-0.747-3.034-1.65c-0.721-0.892-1.113-2.061-1.006-3.294l0.003-0.01l0.01-0.101v-0.007
			c0.163-1.529,0.904-2.852,1.98-3.764c0.542-0.459,1.166-0.814,1.844-1.041L2.451,3.105V0h33.528v3.105l-1.526,2.546
			c0.552,0.224,1.062,0.535,1.515,0.919c1.076,0.912,1.818,2.236,1.98,3.764v0.007l0.01,0.1l0.005,0.011
			c0.105,1.233-0.286,2.402-1.007,3.294c-0.73,0.903-1.801,1.525-3.034,1.65h-0.007l-0.067,0.005l-0.01,0.004
			c-1.205,0.098-2.337-0.301-3.2-1.033c-0.105-0.089-0.206-0.183-0.303-0.282L29.09,11.531z"/>
	</g>
	<g>
		<defs>
			<rect id="SVGID_3_" x="0" y="0" width="37.979" height="35.705"/>
		</defs>
		<clipPath id="SVGID_4_">
			<use xlink:href="#SVGID_3_"  overflow="visible"/>
		</clipPath>
		<path clip-path="url(#SVGID_4_)" fill="#FFFFFF" d="M8.888,11.531H29.09l1.243,2.559v15.616l-3.423,0.713V20.81
			c0-0.892-0.113-1.374-1.028-1.374c-0.916,0-1.157,0.483-1.157,1.374v10.506l-3.51,0.839V20.573c0-0.992-0.835-1.805-1.856-1.805
			s-1.856,0.813-1.856,1.805V33.15l-3.487,0.866V20.81c0-0.892-0.368-1.499-1.284-1.499s-1.158,0.608-1.158,1.499v13.979
			l-3.592,0.917V13.703L8.888,11.531z"/>
	</g>
</g>
</svg>
