<?xml version="1.0" encoding="utf-8"?>
<!-- Generator: Adobe Illustrator 17.0.0, SVG Export Plug-In . SVG Version: 6.00 Build 0)  -->
<!DOCTYPE svg PUBLIC "-//W3C//DTD SVG 1.1//EN" "http://www.w3.org/Graphics/SVG/1.1/DTD/svg11.dtd">
<svg version="1.1" id="Ebene_1" xmlns="http://www.w3.org/2000/svg" xmlns:xlink="http://www.w3.org/1999/xlink" x="0px" y="0px"
	 width="142.629px" height="76.103px" viewBox="0 0 142.629 76.103" enable-background="new 0 0 142.629 76.103"
	 xml:space="preserve">
<polygon fill="#0066A4" points="0.85,71.058 0,76.103 87.628,76.103 88.484,71.058 "/>
<g>
	<g>
		<defs>
			<rect id="SVGID_1_" y="0" width="142.629" height="76.103"/>
		</defs>
		<clipPath id="SVGID_2_">
			<use xlink:href="#SVGID_1_"  overflow="visible"/>
		</clipPath>
		<path clip-path="url(#SVGID_2_)" fill="#F7DD00" d="M142.628,32.273c-0.028-0.191-0.51-0.363-0.83-0.628
			c-1.094-0.912-5.001-4.757-12.689-4.508c-0.973,0.031-1.86,0.123-2.669,0.262c1.638-0.532,2.485-0.85,2.979-1.047
			c0.596-0.235,4.521-1.581,6.631-8.474c0.181-0.59,0.69-2.011,0.563-2.117c-0.157-0.133-1.478,0.102-2.811,0.915
			c-1.338,0.812-5.833,1.521-6.366,1.607c-0.313,0.05-1.634-0.147-3.605,0.889c2.222-2.282,4.58-5.527,5.213-10.078
			c0.302-2.184,0.174-3.075,0.081-3.069c-0.133,0.01-0.207,0.011-0.369,0.06c-0.494,0.145-0.997,0.564-2.631,1.657
			c-1.637,1.093-3.37,2.304-3.37,2.304s0.594-5.945,0.408-6.084c-0.18-0.134-3.556-0.101-8.738,5.668c0,0,0.59-4.942-0.382-6.807
			c0,0-0.271-1.349-0.481-2.053c-0.105-0.354-0.382-0.727-0.428-0.695c-0.054,0.038-0.513,0.113-1.249,0.959
			c-1.143,1.309-6.454,2.91-7.336,9.784c-0.665-2.773-2.076-6.483-5.564-8.361c-1.969-1.929-2.844-2.505-2.945-2.455
			c-0.089,0.046-0.051,0.903-0.35,2.832c-0.337,2.165-0.638,2.85-0.638,2.85s-3.654-3.215-3.749-3.308
			c-0.172-0.17-2.399,6.886-1.745,10.408c0,0-1.156-0.895-3.262-1.977c-2.39-1.227-6.409-1.438-6.381-1.25
			c0.048,0.317,3.393,6.852,4.8,9.146c0,0-9.01-1.547-8.851-0.985c0.051,0.186,0.267,0.54,0.622,2.044c0,0-3.535-0.077-3.488,0.216
			c0.049,0.326,2.679,4.673,2.881,4.91c0,0-2.735,0.529-3.312,0.561c-0.393,0.02,1.827,6.147,7.908,7.677
			c0.862,0.217,1.694,0.376,2.493,0.493c0.689,0.065,1.534,0.147,2.265,0.216c3.618,0.144,5.995-0.786,5.584-2.125
			c0,0-0.117-0.497-3.83-1.851c0,0,0.104-0.443,0.352-0.503c0.249-0.06,4.108,1.353,3.834,1.128c-0.273-0.231-1.686-1.8-1.432-1.787
			c0.254,0.012,2.067,0.779,2.668,0.215c0.575-0.539,0.936-1.53,1.315-1.746c0.379-0.215-1.01-1.5,0.818-0.909
			c0,0,1.24-0.696,0.265-1.833c-0.977-1.141-4.072-4.802,0.978-0.383c1.208,1.059,4.23-2.166,3.981-3.919
			c0,0,1.208,1.217,1.463,1.347c0.256,0.131,1.946,0.332,2.331-0.254c0.177-0.268-0.62-2.765-0.108-3.862
			c0,0,0.215-0.019,0.419,0.213c0.203,0.235,0.227,2.839,1.144,3.333c0,0,1.03-0.603,1.203-1.052
			c0.178-0.454-0.279,2.812,2.812,1.404c0,0,1.504-1.337,1.936-1.376c0.43-0.041-0.323,1.585,0.058,2.165
			c0.382,0.58,1.646,0.968,2.049,0.243c0.405-0.725,2.333-2.173,2.483-2.115c0.15,0.06-0.981,3.078-1.111,3.374
			c-0.188,0.429-0.322,1.068-0.322,1.068s0.148,0.843,1.201,1.075c0,0,1.988-1.16,4.057-2.669c-0.218,0.262-0.436,0.532-0.656,0.822
			c0,0-2.677,2.748-2.678,3.147c0.004,0.398,0.918,1.291,1.668,0.785c0.749-0.502,2.563-1.253,2.72-1.122
			c0.155,0.131,0.444,0.502,0.068,0.719c-0.378,0.215-2.485,1.317-2.485,1.317s2.406,0.164,5.351-0.431
			c-3.187,1.293-4.29,3.261-4.263,3.448c0.096,0.631,5.047-0.652,5.182-0.34c0.711,1.613-1.569,0.616-2.569,0.784
			c-0.998,0.165-3.564,0.223-1.201,2.247c0,0,0.438,0.033-0.729,0.72c-1.167,0.69,2.598,1.097,3.045,1.597
			c0.446,0.502-3.732-0.047-3.652,1.211c0.082,1.259-0.718,0.465,2.059,3.429c0,0-1.667-0.388-1.862-0.152
			c-0.196,0.235,3.651,3.425,3.627,4.331c0,0-0.782,0.543-1.116,0.067c-0.332-0.476-2.656-3.047-3.034-3.123
			c-0.283-0.056-0.826,0.076-1.078,0.575c0,0,1.017,2.366,0.699,2.434c-0.32,0.066-1.907-1.055-1.907-1.055
			s-1.044,0.461-0.702,1.406c0.341,0.943,3.175,4.156,3.013,4.353c0,0-0.241,0.529-0.605,0.492c-0.366-0.04-2.326-3.586-2.81-3.722
			s0.563,3.313,0.563,3.313s-1.77-1.86-2.24-2.25c-0.469-0.39-0.54,0.412-0.54,0.412l0.512,3.937c0,0-5.508-8.213-4.161,1.58
			c0,0-0.128,0.555-0.309,0.537c-0.183-0.019-1.353-3.241-1.219-4.121c0.136-0.882-0.967,2.439-0.967,2.439
			s-1.728-6.859-5.306,0.173c0,0-0.249-2.657-0.799-3.111c-0.547-0.455-0.981-0.615-1.142-0.619
			c-0.116-0.001-0.842-0.029-1.49,1.199c-2.521,3.27-4.139,7.476-4.595,11.113c-0.079,2.527,0.207,7.08,0.058,8.057
			c-0.089,0.57,0.042,0.632,0.131,0.82c0.029,0.06,0.971-0.719,1.271-0.918c0.443-0.295,5.044-6.48,5.333-8.027
			c0,0,2.453,10.776,3.286,11.932c0.181,0.249,0.329,0.527,0.452,0.333c0.246-0.384,0.613-1.391,0.889-1.474
			c0.353-0.106,1.391-0.236,1.935-1.773c0.545-1.538,1.526-3.039,1.985-7.026c0,0,5.215,6.648,5.893,7.267
			c0.27,0.247,1.686-2.11,2.31-5.897c0.626-3.787-0.72-8.876-1.569-9.05c0,0-0.354-0.558,0.635-0.204
			c0.562,0.202,2.731,3.969,7.737,6.827c0.842,0.483,2.633,0.491,2.643,0.458c0.403-1.123-3.524-11.4-3.524-11.4
			s0.097-0.118,0.888,0.207c0.79,0.323,8.29,5.174,12.84,2.9c0.923-0.46,0.977-0.558,0.977-0.558
			c0.521-2.239-3.486-6.477-5.947-8.401c0,0,6.463-0.262,7.454-1.975c0,0,1.191-0.431,1.807-1.278
			c0.106-0.15-0.696-1.624-1.628-2.271c-2.44-1.693-2.97-2.331-2.97-2.331s0.683-0.825,1.669-1.133
			c0.985-0.309,4.17-2.275,3.319-3.243C141.64,33.397,142.666,32.506,142.628,32.273"/>
	</g>
	<g>
		<defs>
			<rect id="SVGID_3_" y="0" width="142.629" height="76.103"/>
		</defs>
		<clipPath id="SVGID_4_">
			<use xlink:href="#SVGID_3_"  overflow="visible"/>
		</clipPath>
		<path clip-path="url(#SVGID_4_)" fill="#39AA41" d="M83.643,66.601l0.526-3.154c0.08-0.484,0.142-1.051,0.184-1.696
			c0.043-0.646,0.067-1.403,0.073-2.274c0.044,0.384,0.106,0.79,0.182,1.213c0.077,0.425,0.165,0.879,0.268,1.365l0.986,4.547h3.379
			l2.055-12.358h-3.379l-0.463,2.778c-0.084,0.518-0.156,1.158-0.217,1.921c-0.061,0.764-0.114,1.682-0.163,2.755l-0.183-1.091
			c-0.071-0.431-0.139-0.813-0.202-1.144c-0.064-0.331-0.122-0.625-0.173-0.881l-1.011-4.339H82.32l-2.055,12.358
			C80.265,66.601,83.643,66.601,83.643,66.601z"/>
	</g>
</g>
<polygon fill="#39AA41" points="78.811,66.601 79.302,63.646 76.292,63.646 76.583,61.908 79.281,61.908 79.771,58.951 
	77.073,58.951 77.366,57.199 80.374,57.199 80.867,54.243 74.351,54.243 72.296,66.601 "/>
<g>
	<g>
		<defs>
			<rect id="SVGID_5_" y="0" width="142.629" height="76.103"/>
		</defs>
		<clipPath id="SVGID_6_">
			<use xlink:href="#SVGID_5_"  overflow="visible"/>
		</clipPath>
		<path clip-path="url(#SVGID_6_)" fill="#39AA41" d="M65.083,66.601l0.525-3.154c0.081-0.484,0.143-1.051,0.185-1.696
			c0.043-0.646,0.067-1.403,0.071-2.274c0.047,0.384,0.109,0.79,0.185,1.213c0.076,0.425,0.164,0.879,0.265,1.365l0.987,4.547h3.378
			l2.056-12.358h-3.379l-0.462,2.778c-0.086,0.518-0.158,1.158-0.219,1.921c-0.059,0.764-0.114,1.682-0.163,2.755l-0.18-1.091
			c-0.073-0.431-0.14-0.813-0.204-1.144s-0.122-0.625-0.172-0.881l-1.012-4.339h-3.183l-2.055,12.358
			C61.706,66.601,65.083,66.601,65.083,66.601z"/>
	</g>
	<g>
		<defs>
			<rect id="SVGID_7_" y="0" width="142.629" height="76.103"/>
		</defs>
		<clipPath id="SVGID_8_">
			<use xlink:href="#SVGID_7_"  overflow="visible"/>
		</clipPath>
		<path clip-path="url(#SVGID_8_)" fill="#39AA41" d="M51.322,58.365c0.233-1.398-0.087-2.476-0.958-3.234
			c-0.687-0.592-1.82-0.888-3.401-0.888h-3.589l-2.056,12.358h3.488l0.72-4.323l0.111-0.815c0.032,0.171,0.06,0.318,0.082,0.44
			s0.035,0.222,0.039,0.296l0.999,4.402h3.793l-1.753-5.138C50.232,60.891,51.073,59.86,51.322,58.365 M47.865,58.222
			c-0.075,0.455-0.272,0.828-0.589,1.122c-0.319,0.294-0.68,0.44-1.083,0.44h-0.236l0.491-2.945h0.126
			C47.587,56.839,48.019,57.3,47.865,58.222"/>
	</g>
	<g>
		<defs>
			<rect id="SVGID_9_" y="0" width="142.629" height="76.103"/>
		</defs>
		<clipPath id="SVGID_10_">
			<use xlink:href="#SVGID_9_"  overflow="visible"/>
		</clipPath>
		<path clip-path="url(#SVGID_10_)" fill="#39AA41" d="M35.887,62.056h1.296c-0.041,0.241-0.107,0.459-0.199,0.656
			c-0.091,0.196-0.2,0.363-0.326,0.501c-0.127,0.136-0.271,0.243-0.435,0.317c-0.164,0.077-0.34,0.115-0.524,0.115
			c-0.465,0-0.766-0.228-0.903-0.686c-0.137-0.457-0.122-1.19,0.046-2.2c0.394-2.374,1.074-3.562,2.038-3.562
			c0.275,0,0.484,0.113,0.629,0.341c0.144,0.227,0.209,0.535,0.194,0.924l3.594-1.186c-0.588-2.023-1.908-3.036-3.959-3.036
			c-1.547,0-2.858,0.558-3.934,1.669c-1.077,1.114-1.775,2.638-2.097,4.569c-0.317,1.907-0.124,3.407,0.581,4.5
			c0.71,1.082,1.848,1.621,3.412,1.621c1.591,0,2.885-0.553,3.883-1.659c0.913-1.015,1.563-2.677,1.946-4.985l0.083-0.496h-4.893
			L35.887,62.056z"/>
	</g>
</g>
<polygon fill="#39AA41" points="23.531,66.601 24.023,63.646 21.013,63.646 21.302,61.908 24.001,61.908 24.492,58.951 
	21.794,58.951 22.085,57.199 25.095,57.199 25.587,54.243 19.071,54.243 17.015,66.601 "/>
<polygon fill="#39AA41" points="17.46,54.243 13.954,54.243 11.898,66.601 15.404,66.601 "/>
<g>
	<g>
		<defs>
			<rect id="SVGID_11_" y="0" width="142.629" height="76.103"/>
		</defs>
		<clipPath id="SVGID_12_">
			<use xlink:href="#SVGID_11_"  overflow="visible"/>
		</clipPath>
		<path clip-path="url(#SVGID_12_)" fill="#39AA41" d="M11.632,60.431c0.345-2.081-0.018-3.701-1.093-4.86
			c-0.817-0.885-2.092-1.328-3.823-1.328H3.689L1.634,66.602h3.28c1.809,0,3.25-0.476,4.321-1.426
			C10.492,64.061,11.291,62.481,11.632,60.431 M8.029,60.556c-0.333,2.002-1.132,3.029-2.398,3.091l1.047-6.294h0.11
			c0.542,0,0.927,0.288,1.15,0.863C8.163,58.788,8.193,59.569,8.029,60.556"/>
	</g>
	<g>
		<defs>
			<rect id="SVGID_13_" y="0" width="142.629" height="76.103"/>
		</defs>
		<clipPath id="SVGID_14_">
			<use xlink:href="#SVGID_13_"  overflow="visible"/>
		</clipPath>
		<path clip-path="url(#SVGID_14_)" fill="#39AA41" d="M92.908,39.115c-0.619-1.107-1.643-1.663-3.072-1.663
			c-1.417,0-2.636,0.547-3.65,1.639c-1.012,1.088-1.673,2.567-1.983,4.436c-0.329,1.98-0.171,3.521,0.477,4.623
			c0.649,1.109,1.714,1.662,3.187,1.662c1.361,0,2.537-0.548,3.528-1.645c0.988-1.104,1.64-2.589,1.951-4.454
			C93.67,41.756,93.523,40.223,92.908,39.115 M89.883,43.692c-0.18,1.088-0.406,1.885-0.68,2.397
			c-0.271,0.511-0.606,0.767-1.005,0.767c-0.736,0-0.908-1.17-0.52-3.51c0.325-1.958,0.864-2.937,1.616-2.937
			C90.051,40.41,90.248,41.502,89.883,43.692"/>
	</g>
	<g>
		<defs>
			<rect id="SVGID_15_" y="0" width="142.629" height="76.103"/>
		</defs>
		<clipPath id="SVGID_16_">
			<use xlink:href="#SVGID_15_"  overflow="visible"/>
		</clipPath>
		<path clip-path="url(#SVGID_16_)" fill="#39AA41" d="M82.626,38.664c-0.646-0.808-1.605-1.211-2.877-1.211
			c-1.348,0-2.502,0.405-3.468,1.217c-0.972,0.819-1.563,1.874-1.777,3.155c-0.178,1.066-0.022,1.979,0.47,2.737
			c0.499,0.743,1.194,1.114,2.086,1.114c0.361,0,0.791-0.116,1.296-0.354c-0.167,0.194-0.319,0.37-0.455,0.534
			c-0.138,0.163-0.255,0.311-0.355,0.443l-2.661,3.512h3.767l1.541-2.122c1.815-2.489,2.841-4.437,3.073-5.843
			C83.483,40.533,83.271,39.47,82.626,38.664 M79.911,41.694c-0.174,1.058-0.589,1.585-1.241,1.585c-0.688,0-0.941-0.523-0.77-1.568
			c0.185-1.108,0.618-1.661,1.297-1.661C79.855,40.049,80.095,40.597,79.911,41.694"/>
	</g>
	<g>
		<defs>
			<rect id="SVGID_17_" y="0" width="142.629" height="76.103"/>
		</defs>
		<clipPath id="SVGID_18_">
			<use xlink:href="#SVGID_17_"  overflow="visible"/>
		</clipPath>
		<path clip-path="url(#SVGID_18_)" fill="#39AA41" d="M63.878,49.813c1.195,0,2.244-0.381,3.149-1.143
			c0.907-0.762,1.457-1.729,1.651-2.903c0.116-0.689,0.054-1.292-0.185-1.807c-0.235-0.514-0.681-1.016-1.339-1.506l-0.492-0.377
			c-0.425-0.315-0.61-0.631-0.557-0.95c0.033-0.196,0.15-0.363,0.353-0.502c0.197-0.144,0.431-0.216,0.7-0.216
			c0.354,0,0.692,0.122,1.015,0.364c0.324,0.242,0.594,0.575,0.809,0.997l0.618-3.706c-0.78-0.408-1.586-0.613-2.421-0.613
			c-0.936,0-1.778,0.258-2.525,0.772c-0.271,0.181-0.518,0.389-0.743,0.623c-0.224,0.235-0.429,0.494-0.617,0.776
			c-0.381,0.609-0.618,1.19-0.71,1.747c-0.054,0.324-0.066,0.633-0.037,0.928c0.029,0.293,0.106,0.577,0.229,0.853
			c0.122,0.276,0.296,0.544,0.522,0.805c0.225,0.26,0.506,0.521,0.844,0.785l0.504,0.408c0.364,0.305,0.52,0.615,0.467,0.934
			c-0.038,0.223-0.163,0.407-0.377,0.553c-0.216,0.148-0.475,0.222-0.777,0.222c-0.802,0-1.473-0.448-2.013-1.346l-0.632,3.799
			C62.2,49.644,63.055,49.813,63.878,49.813"/>
	</g>
</g>
<polygon fill="#39AA41" points="61.952,37.453 58.446,37.453 56.391,49.813 59.897,49.813 "/>
<g>
	<g>
		<defs>
			<rect id="SVGID_19_" y="0" width="142.629" height="76.103"/>
		</defs>
		<clipPath id="SVGID_20_">
			<use xlink:href="#SVGID_19_"  overflow="visible"/>
		</clipPath>
		<path clip-path="url(#SVGID_20_)" fill="#39AA41" d="M49.179,49.813l0.525-3.154c0.081-0.486,0.143-1.053,0.185-1.698
			s0.066-1.403,0.071-2.273c0.047,0.385,0.108,0.788,0.184,1.214c0.076,0.424,0.164,0.879,0.267,1.363l0.986,4.549h3.378
			l2.056-12.36h-3.379l-0.462,2.779c-0.086,0.517-0.158,1.157-0.218,1.92c-0.06,0.764-0.114,1.683-0.164,2.756l-0.181-1.089
			c-0.072-0.434-0.139-0.814-0.204-1.146c-0.063-0.331-0.12-0.625-0.172-0.88l-1.01-4.34h-3.185l-2.054,12.36L49.179,49.813
			L49.179,49.813z"/>
	</g>
	<g>
		<defs>
			<rect id="SVGID_21_" y="0" width="142.629" height="76.103"/>
		</defs>
		<clipPath id="SVGID_22_">
			<use xlink:href="#SVGID_21_"  overflow="visible"/>
		</clipPath>
		<path clip-path="url(#SVGID_22_)" fill="#39AA41" d="M45.759,43.642c0.346-2.083-0.018-3.702-1.092-4.86
			c-0.817-0.886-2.091-1.329-3.824-1.329h-3.025l-2.056,12.359h3.279c1.809,0,3.252-0.475,4.323-1.424
			C44.62,47.272,45.417,45.69,45.759,43.642 M42.157,43.766c-0.333,2.002-1.133,3.031-2.398,3.09l1.047-6.294h0.109
			c0.544,0,0.927,0.289,1.151,0.866C42.29,42,42.32,42.778,42.157,43.766"/>
	</g>
	<g>
		<defs>
			<rect id="SVGID_23_" y="0" width="142.629" height="76.103"/>
		</defs>
		<clipPath id="SVGID_24_">
			<use xlink:href="#SVGID_23_"  overflow="visible"/>
		</clipPath>
		<path clip-path="url(#SVGID_24_)" fill="#39AA41" d="M28.55,49.813l0.524-3.154c0.081-0.486,0.143-1.053,0.186-1.698
			c0.042-0.646,0.066-1.403,0.071-2.273c0.046,0.385,0.107,0.788,0.183,1.214c0.076,0.424,0.165,0.879,0.267,1.363l0.986,4.549
			h3.378l2.056-12.36h-3.378l-0.463,2.779c-0.085,0.517-0.159,1.157-0.218,1.92c-0.06,0.764-0.115,1.683-0.164,2.756l-0.18-1.089
			c-0.072-0.434-0.141-0.814-0.204-1.146c-0.063-0.331-0.121-0.625-0.173-0.88l-1.01-4.34h-3.184l-2.056,12.36L28.55,49.813
			L28.55,49.813z"/>
	</g>
	<g>
		<defs>
			<rect id="SVGID_25_" y="0" width="142.629" height="76.103"/>
		</defs>
		<clipPath id="SVGID_26_">
			<use xlink:href="#SVGID_25_"  overflow="visible"/>
		</clipPath>
		<path clip-path="url(#SVGID_26_)" fill="#39AA41" d="M14.529,40.959c0.174-1.04-0.058-1.89-0.694-2.547
			c-0.628-0.64-1.704-0.959-3.229-0.959H6.528L4.473,49.812h4.91c1.171,0,2.169-0.323,2.996-0.977
			c0.83-0.646,1.333-1.497,1.51-2.561c0.141-0.844,0.033-1.489-0.321-1.938s-0.98-0.736-1.878-0.864
			C13.325,43.344,14.272,42.507,14.529,40.959 M9.097,44.757c0.454,0,0.794,0.106,1.018,0.321c0.225,0.215,0.306,0.513,0.243,0.892
			c-0.063,0.38-0.244,0.683-0.541,0.908c-0.299,0.227-0.666,0.338-1.104,0.338c-0.033,0-0.074,0-0.125-0.003
			C8.538,47.21,8.48,47.206,8.412,47.2l0.407-2.442L9.097,44.757L9.097,44.757z M11.027,41.097
			c-0.057,0.336-0.222,0.597-0.496,0.783c-0.276,0.187-0.624,0.278-1.044,0.278H9.252l0.353-2.119
			c0.085-0.006,0.157-0.01,0.216-0.013c0.059-0.003,0.109-0.004,0.148-0.004C10.792,40.023,11.146,40.38,11.027,41.097"/>
	</g>
	<g>
		<defs>
			<rect id="SVGID_27_" y="0" width="142.629" height="76.103"/>
		</defs>
		<clipPath id="SVGID_28_">
			<use xlink:href="#SVGID_27_"  overflow="visible"/>
		</clipPath>
		<path clip-path="url(#SVGID_28_)" fill="#39AA41" d="M57.189,62.306c-0.093,0.554-0.222,0.941-0.387,1.16
			c-0.163,0.21-0.414,0.313-0.75,0.313c-0.324,0-0.538-0.112-0.637-0.336c-0.101-0.224-0.106-0.605-0.016-1.146l1.326-7.974H53.22
			l-1.376,8.271c-0.264,1.586,0.06,2.737,0.971,3.459c0.719,0.565,1.678,0.849,2.878,0.849c1.059,0,2.001-0.258,2.826-0.768
			c0.612-0.386,1.077-0.816,1.392-1.289c0.316-0.456,0.535-1.049,0.657-1.779l1.453-8.742h-3.505L57.189,62.306z"/>
	</g>
	<g>
		<defs>
			<rect id="SVGID_29_" y="0" width="142.629" height="76.103"/>
		</defs>
		<clipPath id="SVGID_30_">
			<use xlink:href="#SVGID_29_"  overflow="visible"/>
		</clipPath>
		<path clip-path="url(#SVGID_30_)" fill="#39AA41" d="M57.239,51.088c-0.213-0.25-0.507-0.373-0.88-0.373
			c-0.367,0-0.701,0.123-1.004,0.373c-0.303,0.248-0.483,0.549-0.542,0.905c-0.058,0.35,0.023,0.648,0.242,0.896
			c0.22,0.249,0.513,0.373,0.881,0.373c0.362,0,0.694-0.124,0.996-0.373c0.308-0.254,0.491-0.552,0.548-0.896
			C57.541,51.637,57.46,51.336,57.239,51.088"/>
	</g>
	<g>
		<defs>
			<rect id="SVGID_31_" y="0" width="142.629" height="76.103"/>
		</defs>
		<clipPath id="SVGID_32_">
			<use xlink:href="#SVGID_31_"  overflow="visible"/>
		</clipPath>
		<path clip-path="url(#SVGID_32_)" fill="#39AA41" d="M60.966,51.096c-0.224-0.253-0.52-0.38-0.887-0.38
			c-0.373,0-0.71,0.122-1.014,0.372c-0.301,0.248-0.481,0.548-0.54,0.897c-0.059,0.355,0.021,0.656,0.242,0.904
			c0.219,0.249,0.517,0.374,0.896,0.374c0.367,0,0.701-0.125,1.004-0.374c0.302-0.248,0.482-0.542,0.539-0.882
			C61.265,51.647,61.185,51.344,60.966,51.096"/>
	</g>
	<g>
		<defs>
			<rect id="SVGID_33_" y="0" width="142.629" height="76.103"/>
		</defs>
		<clipPath id="SVGID_34_">
			<use xlink:href="#SVGID_33_"  overflow="visible"/>
		</clipPath>
		<path clip-path="url(#SVGID_34_)" fill="#39AA41" d="M20.62,45.433c-0.092,0.555-0.221,0.942-0.386,1.16
			c-0.164,0.209-0.415,0.313-0.75,0.313c-0.326,0-0.538-0.112-0.637-0.335c-0.102-0.225-0.107-0.606-0.017-1.146l1.326-7.976h-3.504
			l-1.377,8.271c-0.263,1.588,0.06,2.739,0.972,3.458c0.718,0.568,1.677,0.852,2.878,0.852c1.058,0,2-0.257,2.825-0.77
			c0.613-0.384,1.077-0.814,1.392-1.289c0.317-0.454,0.535-1.047,0.657-1.777l1.454-8.744h-3.506L20.62,45.433z"/>
	</g>
	<g>
		<defs>
			<rect id="SVGID_35_" y="0" width="142.629" height="76.103"/>
		</defs>
		<clipPath id="SVGID_36_">
			<use xlink:href="#SVGID_35_"  overflow="visible"/>
		</clipPath>
		<path clip-path="url(#SVGID_36_)" fill="#39AA41" d="M20.654,34.216c-0.213-0.249-0.504-0.374-0.875-0.374
			c-0.364,0-0.697,0.125-0.997,0.374c-0.3,0.248-0.48,0.55-0.538,0.904c-0.058,0.351,0.022,0.65,0.24,0.897
			c0.218,0.25,0.51,0.374,0.875,0.374c0.36,0,0.689-0.124,0.989-0.374c0.306-0.253,0.488-0.552,0.545-0.897
			C20.952,34.766,20.873,34.464,20.654,34.216"/>
	</g>
	<g>
		<defs>
			<rect id="SVGID_37_" y="0" width="142.629" height="76.103"/>
		</defs>
		<clipPath id="SVGID_38_">
			<use xlink:href="#SVGID_37_"  overflow="visible"/>
		</clipPath>
		<path clip-path="url(#SVGID_38_)" fill="#39AA41" d="M24.396,34.224c-0.224-0.254-0.519-0.382-0.886-0.382
			c-0.373,0-0.711,0.126-1.013,0.375c-0.303,0.248-0.483,0.546-0.54,0.896c-0.06,0.356,0.021,0.658,0.24,0.905
			c0.22,0.249,0.518,0.374,0.897,0.374c0.366,0,0.702-0.125,1.004-0.374c0.301-0.247,0.481-0.542,0.538-0.881
			C24.696,34.775,24.616,34.471,24.396,34.224"/>
	</g>
</g>
</svg>
