<?xml version="1.0" encoding="utf-8"?>
<!-- Generator: Adobe Illustrator 17.0.0, SVG Export Plug-In . SVG Version: 6.00 Build 0)  -->
<!DOCTYPE svg PUBLIC "-//W3C//DTD SVG 1.1//EN" "http://www.w3.org/Graphics/SVG/1.1/DTD/svg11.dtd">
<svg version="1.1" id="Ebene_1" xmlns="http://www.w3.org/2000/svg" xmlns:xlink="http://www.w3.org/1999/xlink" x="0px" y="0px"
	 width="273.782px" height="290.001px" viewBox="0 0 273.782 290.001" enable-background="new 0 0 273.782 290.001"
	 xml:space="preserve">
<g>
	<g>
		<path fill="#FFFFFF" d="M228.702,60.008C231.926,26.133,224.654,10.62,209.828,0c-0.268,20.26-28.658,42.664-30.42,60.933
			c-1.115,11.461,4.056,22.663,12.611,29.547c14.222-13.218,21.978-33.353,23.804-53.818c0.863,20.522-5.261,41.974-20.346,57.059
			c-12.32,12.325-18.09,41.174-15.085,55.459l18.1-2.894c-3.878-4.737-14.091-39.13,1.987-48.413
			C208.309,93.344,226.408,84.053,228.702,60.008z"/>
		<path fill="#FFFFFF" d="M155.814,110.021c-12.395-13.017-16.53-30.081-15.432-47.233c1.123,17.148,7.239,34.213,18.954,45.698
			c7.32-5.604,11.861-14.911,11.118-24.565c-1.123-15.328-21.809-34.73-24.377-51.795c-12.669,11.805-22.412,25.33-19.021,50.07
			c2.845,20.793,20.232,27.495,26.631,31.381c13.364,8.146,5.777,30.663,2.505,34.563l19.779,0.076
			C178.891,136.232,165.931,120.622,155.814,110.021z"/>
	</g>
	<path fill="#FFFFFF" d="M194.436,180.399c6.053,0.563,11.481,3.446,15.408,8.12c0.849,1.021,1.552,2.121,2.197,3.244
		c0.089-0.036,0.178-0.049,0.259-0.089c0.178,0.218,0.282,0.622,0.349,1.204c1.882,3.731,2.747,7.971,2.343,12.208
		c-0.274,3.01-1.115,5.776-2.359,8.24l31.811-27.511c1.019-0.913,2.116-1.637,3.265-2.327c-1.293-2.675-2.521-5.234-2.521-6.646
		c0-4.308-2.393-8.017-5.931-10.071c-1.526-2.101-3.732-3.62-6.303-4.398c-0.064-0.086-0.104-0.121-0.187-0.238
		c-1.382-4.981-5.979-8.666-11.506-8.666c-0.258,0-0.598,0.068-0.921,0.085c-1.81-4.222-6.06-7.158-11.037-7.158
		c-0.089,0-0.169,0.021-0.258,0.032c-1.123-5.313-5.947-9.336-11.659-9.336c-2.698,0-5.171,0.929-7.167,2.383
		c-2.165-2.896-5.664-4.803-9.623-4.803c-1.979,0-3.878,0.541-5.542,1.404c-1.713-4.415-6.035-7.586-11.149-7.586
		c-3.231,0-6.205,1.292-8.362,3.36c-0.153,0-0.291-0.04-0.443-0.04c-2.149,0-4.211,0.605-5.947,1.641
		c-1.811-1.002-3.797-1.641-5.979-1.641c-6.608,0-11.981,5.26-11.981,11.72c0,0.064,0.031,0.089,0.031,0.157
		c-0.549-0.085-1.123-0.157-1.64-0.157c-6.602,0-11.958,5.261-11.958,11.721c-6.638,0-11.986,5.26-11.986,11.719
		c0,1.92,0.518,3.709,1.351,5.293L194.436,180.399z"/>
	<path fill="#FFFFFF" d="M270.248,193.573c-5.252-6.043-14.39-6.652-20.426-1.462l-42.943,37.194l-51.104-4.052
		c-0.01,0-0.018,0-0.018,0c-15.044-1.136-22.09-12.071-9.914-11.99l0,0l45.126,4.205c0.428,0.045,0.904,0.077,1.31,0.077
		c7.393,0,13.711-5.604,14.396-13.153c0.76-7.967-5.098-15.021-13.08-15.771l-106.471-9.914c-0.072-0.005-0.089,0.012-0.161,0.004
		c-0.558-0.044-1.123-0.008-1.641,0.021c-0.429,0.013-0.841-0.023-1.262,0.068c-0.267,0.032-0.581,0.085-0.814,0.17
		c-0.671,0.085-1.342,0.259-1.979,0.428c-0.089,0.037-0.233,0.089-0.308,0.138c-0.775,0.264-1.591,0.605-2.326,1.034
		c-0.023,0.018-0.064,0.024-0.089,0.036L7.24,221.79c-4.646,2.674-7.175,7.537-7.184,12.53h-0.057v41.279h0.063
		c0.009,2.444,0.599,4.916,1.875,7.154c2.675,4.63,7.556,7.248,12.557,7.248c2.456,0,4.912-0.632,7.23-1.984l50.861-29.377l0,0
		l138.037-0.041c0.38,0.028,0.76,0.041,1.115,0.041l0,0l0,0c0,0,0.016,0,0.023,0l0,0c2.595-0.009,8.879-3.02,11.604-5.365
		l45.416-39.389C274.829,208.751,275.483,199.613,270.248,193.573z"/>
</g>
</svg>
