<?xml version="1.0" encoding="utf-8"?>
<!-- Generator: Adobe Illustrator 17.0.0, SVG Export Plug-In . SVG Version: 6.00 Build 0)  -->
<!DOCTYPE svg PUBLIC "-//W3C//DTD SVG 1.1//EN" "http://www.w3.org/Graphics/SVG/1.1/DTD/svg11.dtd">
<svg version="1.1" id="Ebene_1" xmlns="http://www.w3.org/2000/svg" xmlns:xlink="http://www.w3.org/1999/xlink" x="0px" y="0px"
	 width="37.56px" height="39.401px" viewBox="0 0 37.56 39.401" enable-background="new 0 0 37.56 39.401" xml:space="preserve">
<g>
	<g>
		<g>
			<defs>
				<rect id="SVGID_1_" x="0" y="0" width="37.559" height="39.402"/>
			</defs>
			<clipPath id="SVGID_2_">
				<use xlink:href="#SVGID_1_"  overflow="visible"/>
			</clipPath>
			<path clip-path="url(#SVGID_2_)" fill="#FFFFFF" d="M9.803,8.509c-2.35,0-4.255-1.905-4.255-4.255C5.548,1.905,7.453,0,9.803,0
				s4.255,1.905,4.255,4.254C14.058,6.604,12.153,8.509,9.803,8.509"/>
		</g>
	</g>
	<g>
		<g>
			<defs>
				<rect id="SVGID_3_" x="0" y="0" width="37.559" height="39.402"/>
			</defs>
			<clipPath id="SVGID_4_">
				<use xlink:href="#SVGID_3_"  overflow="visible"/>
			</clipPath>
			<path clip-path="url(#SVGID_4_)" fill="#FFFFFF" d="M19.347,9.354c-2.622,0.014-5.809-0.109-7.252-0.291
				c-0.02,0.034-0.042,0.066-0.064,0.098C12.018,9.18,12.004,9.2,11.992,9.219c-0.019,0.027-0.038,0.052-0.058,0.078
				c-0.014,0.018-0.028,0.037-0.043,0.055c-0.02,0.025-0.041,0.049-0.062,0.074c-0.015,0.017-0.031,0.036-0.047,0.053
				c-0.021,0.024-0.044,0.046-0.066,0.068c-0.017,0.018-0.033,0.035-0.051,0.052c-0.022,0.022-0.046,0.042-0.069,0.063
				c-0.018,0.017-0.036,0.033-0.054,0.049c-0.024,0.02-0.049,0.039-0.073,0.059c-0.019,0.015-0.038,0.031-0.059,0.046
				c-0.024,0.018-0.05,0.035-0.075,0.053c-0.021,0.014-0.041,0.029-0.062,0.043c-0.025,0.017-0.052,0.032-0.078,0.048
				c-0.022,0.013-0.043,0.027-0.066,0.04c-0.026,0.014-0.053,0.028-0.081,0.043c-0.022,0.012-0.045,0.024-0.068,0.035
				c-0.027,0.014-0.056,0.026-0.084,0.038c-0.023,0.011-0.047,0.022-0.071,0.032c-0.028,0.011-0.057,0.021-0.086,0.032
				c-0.025,0.009-0.049,0.019-0.074,0.027c-0.029,0.01-0.059,0.019-0.089,0.028c-0.026,0.008-0.05,0.016-0.075,0.022
				c-0.032,0.009-0.064,0.015-0.096,0.023c-0.024,0.005-0.048,0.012-0.073,0.017c-0.034,0.006-0.069,0.011-0.103,0.017
				c-0.024,0.003-0.046,0.008-0.07,0.011c-0.038,0.005-0.077,0.009-0.116,0.012c-0.02,0.002-0.04,0.005-0.06,0.006
				c-0.06,0.004-0.119,0.005-0.18,0.005c-0.06,0-0.12-0.001-0.18-0.005c-0.02-0.001-0.039-0.004-0.06-0.006
				c-0.039-0.003-0.077-0.007-0.116-0.012c-0.024-0.003-0.046-0.008-0.07-0.011c-0.034-0.006-0.069-0.011-0.103-0.017
				c-0.024-0.005-0.048-0.012-0.073-0.017c-0.032-0.008-0.064-0.014-0.096-0.023c-0.025-0.006-0.049-0.014-0.074-0.022
				c-0.03-0.009-0.06-0.018-0.09-0.028c-0.025-0.008-0.049-0.018-0.074-0.027c-0.029-0.011-0.058-0.021-0.086-0.032
				c-0.024-0.01-0.048-0.021-0.071-0.032c-0.028-0.012-0.056-0.024-0.084-0.038c-0.023-0.011-0.046-0.023-0.068-0.035
				C8.53,10.028,8.502,10.014,8.477,10C8.455,9.987,8.433,9.973,8.412,9.96C8.384,9.944,8.357,9.929,8.333,9.912
				C8.312,9.898,8.292,9.883,8.271,9.869C8.246,9.851,8.22,9.834,8.194,9.816C8.175,9.801,8.157,9.785,8.137,9.77
				c-0.025-0.02-0.05-0.039-0.073-0.059C8.045,9.695,8.027,9.679,8.009,9.663C7.986,9.642,7.962,9.621,7.94,9.599
				C7.922,9.582,7.907,9.565,7.89,9.548C7.868,9.525,7.845,9.503,7.824,9.479C7.808,9.462,7.792,9.443,7.776,9.426
				C7.755,9.401,7.734,9.377,7.714,9.352C7.7,9.334,7.686,9.315,7.671,9.297c-0.02-0.026-0.039-0.051-0.058-0.078
				C7.601,9.2,7.587,9.18,7.575,9.161C7.553,9.129,7.53,9.097,7.511,9.063c-1.442,0.182-2.949,1.962-3.896,3.614l-3.377,5.594
				C0.082,18.525,0.004,18.815,0,19.104c-0.01,0.478,0.181,0.951,0.547,1.247c0.584,0.473,1.391,0.314,1.804-0.356l3.601-5.883
				c-0.002,0.936-0.321,9.471-0.113,10.407h7.71c0.208-0.937,0.105-11.564,0.103-12.5"/>
		</g>
	</g>
	<g>
		<g>
			<defs>
				<rect id="SVGID_5_" x="0" y="0" width="37.559" height="39.402"/>
			</defs>
			<clipPath id="SVGID_6_">
				<use xlink:href="#SVGID_5_"  overflow="visible"/>
			</clipPath>
			<path clip-path="url(#SVGID_6_)" fill="#FFFFFF" d="M13.642,23.201v14.336v0.011c0,0.683-0.323,1.277-0.802,1.6
				c-0.005,0.003-0.01,0.007-0.015,0.011c-0.031,0.021-0.062,0.038-0.093,0.055c-0.013,0.009-0.027,0.016-0.04,0.022
				c-0.028,0.015-0.057,0.029-0.086,0.041c-0.018,0.008-0.036,0.016-0.054,0.022c-0.027,0.011-0.054,0.021-0.082,0.03
				c-0.022,0.007-0.044,0.013-0.066,0.02c-0.025,0.007-0.051,0.014-0.077,0.02c-0.027,0.006-0.054,0.01-0.082,0.014
				c-0.022,0.005-0.044,0.009-0.067,0.012c-0.046,0.005-0.092,0.007-0.14,0.008c-0.004,0-0.009,0-0.013,0h-0.001
				c-0.005,0-0.009,0-0.014,0c-0.047-0.001-0.093-0.003-0.139-0.008c-0.023-0.003-0.045-0.007-0.067-0.012
				c-0.027-0.004-0.055-0.008-0.082-0.014c-0.026-0.006-0.052-0.013-0.077-0.02c-0.022-0.007-0.045-0.013-0.067-0.021
				c-0.027-0.009-0.054-0.019-0.081-0.029c-0.018-0.008-0.037-0.015-0.055-0.022c-0.029-0.013-0.057-0.026-0.085-0.041
				c-0.014-0.007-0.028-0.015-0.042-0.023c-0.031-0.017-0.061-0.034-0.09-0.054c-0.008-0.005-0.015-0.01-0.022-0.015
				c-0.476-0.322-0.796-0.915-0.796-1.596v-0.011V23.201H9.699H8.99v14.336v0.011c0,0.681-0.32,1.273-0.797,1.596
				c-0.007,0.005-0.014,0.01-0.021,0.015c-0.029,0.02-0.059,0.037-0.09,0.054c-0.014,0.009-0.028,0.017-0.042,0.023
				c-0.028,0.015-0.057,0.028-0.085,0.041c-0.018,0.008-0.036,0.015-0.055,0.022c-0.027,0.011-0.054,0.021-0.082,0.029
				c-0.022,0.008-0.044,0.014-0.066,0.021c-0.025,0.007-0.051,0.014-0.077,0.02c-0.027,0.006-0.055,0.01-0.082,0.014
				c-0.022,0.005-0.044,0.009-0.067,0.012c-0.046,0.005-0.093,0.007-0.14,0.008c-0.004,0-0.008,0-0.013,0H7.372
				c-0.005,0-0.009,0-0.013,0c-0.048-0.001-0.095-0.003-0.141-0.008c-0.022-0.003-0.044-0.007-0.066-0.012
				c-0.027-0.004-0.055-0.008-0.082-0.014c-0.026-0.006-0.052-0.013-0.077-0.02c-0.022-0.007-0.045-0.013-0.066-0.02
				c-0.028-0.009-0.055-0.02-0.082-0.03c-0.018-0.007-0.036-0.015-0.054-0.022c-0.029-0.012-0.058-0.026-0.086-0.041
				c-0.014-0.007-0.026-0.014-0.04-0.022c-0.031-0.017-0.062-0.034-0.093-0.055c-0.005-0.004-0.01-0.008-0.016-0.011
				c-0.479-0.322-0.801-0.917-0.801-1.6v-0.011V23.201"/>
		</g>
	</g>
</g>
<rect x="12.972" y="9.184" fill="#FFFFFF" width="8.51" height="3.41"/>
<g>
	<g>
		<g>
			<defs>
				<rect id="SVGID_7_" x="0" y="0" width="37.559" height="39.402"/>
			</defs>
			<clipPath id="SVGID_8_">
				<use xlink:href="#SVGID_7_"  overflow="visible"/>
			</clipPath>
			<path clip-path="url(#SVGID_8_)" fill="#FFFFFF" d="M27.757,8.509c2.35,0,4.255-1.905,4.255-4.255
				C32.012,1.905,30.106,0,27.757,0c-2.351,0-4.256,1.905-4.256,4.254C23.501,6.604,25.406,8.509,27.757,8.509"/>
		</g>
	</g>
	<g>
		<g>
			<defs>
				<rect id="SVGID_9_" x="0" y="0" width="37.559" height="39.402"/>
			</defs>
			<clipPath id="SVGID_10_">
				<use xlink:href="#SVGID_9_"  overflow="visible"/>
			</clipPath>
			<path clip-path="url(#SVGID_10_)" fill="#FFFFFF" d="M18.212,9.354c2.623,0.014,5.809-0.109,7.252-0.291
				c0.02,0.034,0.042,0.066,0.063,0.098c0.014,0.019,0.026,0.039,0.039,0.058c0.02,0.027,0.038,0.052,0.059,0.078
				c0.014,0.018,0.027,0.037,0.043,0.055c0.02,0.025,0.041,0.049,0.062,0.074c0.015,0.017,0.031,0.036,0.047,0.053
				c0.021,0.024,0.044,0.046,0.066,0.068c0.017,0.018,0.033,0.035,0.051,0.052c0.022,0.022,0.046,0.042,0.069,0.063
				C25.981,9.679,26,9.695,26.018,9.711c0.024,0.02,0.049,0.039,0.073,0.059c0.019,0.015,0.038,0.031,0.059,0.046
				c0.024,0.018,0.05,0.035,0.075,0.053c0.021,0.014,0.041,0.029,0.062,0.043c0.025,0.017,0.053,0.032,0.078,0.048
				c0.022,0.013,0.043,0.027,0.066,0.04c0.026,0.014,0.053,0.028,0.081,0.043c0.021,0.012,0.045,0.024,0.068,0.035
				c0.026,0.014,0.056,0.026,0.084,0.038c0.022,0.011,0.047,0.022,0.07,0.032c0.028,0.011,0.058,0.021,0.086,0.032
				c0.025,0.009,0.049,0.019,0.074,0.027c0.029,0.01,0.059,0.019,0.089,0.028c0.026,0.008,0.05,0.016,0.075,0.022
				c0.032,0.009,0.064,0.015,0.096,0.023c0.024,0.005,0.048,0.012,0.073,0.017c0.034,0.006,0.069,0.011,0.104,0.017
				c0.023,0.003,0.046,0.008,0.069,0.011c0.038,0.005,0.077,0.009,0.116,0.012c0.02,0.002,0.04,0.005,0.06,0.006
				c0.061,0.004,0.119,0.005,0.181,0.005c0.06,0,0.12-0.001,0.18-0.005c0.021-0.001,0.039-0.004,0.061-0.006
				c0.038-0.003,0.076-0.007,0.115-0.012c0.024-0.003,0.046-0.008,0.07-0.011c0.034-0.006,0.069-0.011,0.103-0.017
				c0.024-0.005,0.049-0.012,0.073-0.017c0.032-0.008,0.064-0.014,0.097-0.023c0.024-0.006,0.049-0.014,0.073-0.022
				c0.03-0.009,0.061-0.018,0.09-0.028c0.025-0.008,0.05-0.018,0.074-0.027c0.029-0.011,0.059-0.021,0.086-0.032
				c0.024-0.01,0.048-0.021,0.071-0.032c0.028-0.012,0.056-0.024,0.084-0.038c0.023-0.011,0.046-0.023,0.068-0.035
				c0.026-0.015,0.055-0.029,0.081-0.043c0.021-0.013,0.044-0.027,0.064-0.04c0.027-0.016,0.054-0.031,0.079-0.048
				c0.021-0.014,0.041-0.029,0.063-0.043c0.024-0.018,0.051-0.035,0.075-0.053c0.02-0.015,0.038-0.031,0.059-0.046
				c0.023-0.02,0.049-0.039,0.071-0.059c0.02-0.016,0.037-0.032,0.056-0.048c0.022-0.021,0.047-0.042,0.068-0.064
				c0.019-0.017,0.034-0.034,0.052-0.051c0.021-0.023,0.045-0.045,0.065-0.069c0.017-0.017,0.031-0.036,0.047-0.053
				c0.021-0.025,0.042-0.049,0.063-0.074c0.015-0.018,0.029-0.037,0.043-0.055c0.02-0.026,0.039-0.051,0.058-0.078
				C29.96,9.2,29.972,9.18,29.985,9.161c0.022-0.032,0.044-0.064,0.064-0.098c1.441,0.182,2.949,1.962,3.896,3.614l3.377,5.594
				c0.156,0.254,0.233,0.544,0.237,0.833c0.01,0.478-0.181,0.951-0.547,1.247c-0.584,0.473-1.392,0.314-1.804-0.356l-3.602-5.883
				c0.002,0.936,0.321,9.471,0.113,10.407h-7.71c-0.208-0.937-0.105-11.564-0.104-12.5"/>
		</g>
	</g>
	<g>
		<g>
			<defs>
				<rect id="SVGID_11_" x="0" y="0" width="37.559" height="39.402"/>
			</defs>
			<clipPath id="SVGID_12_">
				<use xlink:href="#SVGID_11_"  overflow="visible"/>
			</clipPath>
			<path clip-path="url(#SVGID_12_)" fill="#FFFFFF" d="M23.917,23.201v14.336v0.011c0,0.683,0.322,1.277,0.803,1.6
				c0.005,0.003,0.01,0.007,0.015,0.011c0.031,0.021,0.063,0.038,0.093,0.055c0.014,0.009,0.027,0.016,0.04,0.022
				c0.028,0.015,0.058,0.029,0.086,0.041c0.019,0.008,0.036,0.016,0.055,0.022c0.026,0.011,0.054,0.021,0.082,0.03
				c0.021,0.007,0.044,0.013,0.065,0.02c0.025,0.007,0.051,0.014,0.077,0.02c0.027,0.006,0.054,0.01,0.082,0.014
				c0.021,0.005,0.044,0.009,0.067,0.012c0.046,0.005,0.092,0.007,0.14,0.008c0.004,0,0.008,0,0.013,0h0.001
				c0.005,0,0.009,0,0.015,0c0.047-0.001,0.093-0.003,0.139-0.008c0.022-0.003,0.045-0.007,0.067-0.012
				c0.026-0.004,0.055-0.008,0.081-0.014s0.053-0.013,0.077-0.02c0.022-0.007,0.045-0.013,0.067-0.021
				c0.027-0.009,0.054-0.019,0.081-0.029c0.018-0.008,0.037-0.015,0.055-0.022c0.029-0.013,0.058-0.026,0.085-0.041
				c0.015-0.007,0.028-0.015,0.042-0.023c0.031-0.017,0.062-0.034,0.09-0.054c0.009-0.005,0.015-0.01,0.022-0.015
				c0.476-0.322,0.796-0.915,0.796-1.596v-0.011V23.201h0.708h0.709v14.336v0.011c0,0.681,0.32,1.273,0.797,1.596
				c0.007,0.005,0.015,0.01,0.021,0.015c0.028,0.02,0.059,0.037,0.09,0.054c0.014,0.009,0.028,0.017,0.042,0.023
				c0.028,0.015,0.057,0.028,0.085,0.041c0.018,0.008,0.036,0.015,0.055,0.022c0.027,0.011,0.055,0.021,0.082,0.029
				c0.022,0.008,0.044,0.014,0.066,0.021c0.024,0.007,0.051,0.014,0.077,0.02s0.055,0.01,0.082,0.014
				c0.021,0.005,0.044,0.009,0.066,0.012c0.046,0.005,0.093,0.007,0.141,0.008c0.004,0,0.008,0,0.013,0h0.001
				c0.005,0,0.009,0,0.013,0c0.048-0.001,0.095-0.003,0.142-0.008c0.021-0.003,0.044-0.007,0.065-0.012
				c0.027-0.004,0.055-0.008,0.082-0.014c0.026-0.006,0.052-0.013,0.077-0.02c0.022-0.007,0.045-0.013,0.066-0.02
				c0.027-0.009,0.055-0.02,0.082-0.03c0.018-0.007,0.035-0.015,0.054-0.022c0.029-0.012,0.058-0.026,0.086-0.041
				c0.014-0.007,0.026-0.014,0.04-0.022c0.031-0.017,0.062-0.034,0.093-0.055c0.005-0.004,0.01-0.008,0.016-0.011
				c0.479-0.322,0.802-0.917,0.802-1.6v-0.011V23.201"/>
		</g>
	</g>
</g>
<rect x="16.063" y="9.184" fill="#FFFFFF" width="8.51" height="3.41"/>
</svg>
