<?xml version="1.0" encoding="utf-8"?>
<!-- Generator: Adobe Illustrator 17.0.0, SVG Export Plug-In . SVG Version: 6.00 Build 0)  -->
<!DOCTYPE svg PUBLIC "-//W3C//DTD SVG 1.1//EN" "http://www.w3.org/Graphics/SVG/1.1/DTD/svg11.dtd">
<svg version="1.1" id="Layer_1" xmlns="http://www.w3.org/2000/svg" xmlns:xlink="http://www.w3.org/1999/xlink" x="0px" y="0px"
	 width="104.861px" height="104.862px" viewBox="0 0 104.861 104.862" enable-background="new 0 0 104.861 104.862"
	 xml:space="preserve">
<circle fill="#F6B6AE" cx="52.431" cy="52.43" r="52.431"/>
<path fill="#FFFFFF" d="M18.7,48.116l13.254,0.047c0,0,3.602-0.37,4.525-1.018c0,0,3.694-3.187,5.172-4.663
	c0,0,2.032-1.986,2.631-3.556c0,0,1.524-3.325,4.111-5.126c0,0,2.679-2.541,4.294-3.557c0,0,1.708-1.062,2.401-2.447
	c0,0,1.617-2.586,3.417-4.849c0,0,3.371-3.463,3.833-4.387c0,0,1.94-3.279,2.125-5.31c0,0,0.646-2.264,2.077-3.002
	c0,0,2.817-1.385,4.48,1.247c0,0,1.339,1.293,1.801,6.65c0,0,0.23,5.126-2.587,8.867c0,0-4.155,4.664-5.079,6.142
	c0,0-1.524,2.263-1.34,3.555c0,0,1.848,1.71,5.819,2.679c0,0,5.172,1.386,9.329,3.418c0,0,2.863,1.432,3.647,4.11
	c0,0,0.785,3.51-1.154,5.587c0,0,3.88,3.603,3.047,7.481c0,0-0.322,3.647-4.202,5.264c0,0,2.863,0.74,1.018,4.988
	c0,0-1.109,3.833-4.204,4.294c0,0,1.849,2.771-0.691,6.234c0,0-1.247,3.094-7.158,2.355c0,0-2.679-0.322-4.479,1.293
	c0,0-2.863,1.524-7.158,1.155c0,0-6.188-0.555-9.236-0.463c0,0-3.233-0.138-7.851-2.263c0,0-2.632-1.616-6.096-2.263
	c0,0-6.558-1.293-15.702-1.661L18.7,48.116z"/>
</svg>
