<?xml version="1.0" encoding="utf-8"?>
<!-- Generator: Adobe Illustrator 17.0.0, SVG Export Plug-In . SVG Version: 6.00 Build 0)  -->
<!DOCTYPE svg PUBLIC "-//W3C//DTD SVG 1.1//EN" "http://www.w3.org/Graphics/SVG/1.1/DTD/svg11.dtd">
<svg version="1.1" id="Ebene_1" xmlns="http://www.w3.org/2000/svg" xmlns:xlink="http://www.w3.org/1999/xlink" x="0px" y="0px"
	 width="41.629px" height="28.366px" viewBox="0 0 41.629 28.366" enable-background="new 0 0 41.629 28.366" xml:space="preserve">
<g>
	<g>
		<g>
			<defs>
				<rect id="SVGID_1_" x="0" y="0" width="41.629" height="28.366"/>
			</defs>
			<clipPath id="SVGID_2_">
				<use xlink:href="#SVGID_1_"  overflow="visible"/>
			</clipPath>
			<path clip-path="url(#SVGID_2_)" fill="#FFFFFF" d="M24.723,3.298c0,1.821-1.476,3.298-3.298,3.298
				c-1.821,0-3.297-1.477-3.297-3.298C18.128,1.477,19.604,0,21.425,0C23.247,0,24.723,1.477,24.723,3.298"/>
		</g>
	</g>
	<g>
		<g>
			<defs>
				<rect id="SVGID_3_" x="0" y="0" width="41.629" height="28.366"/>
			</defs>
			<clipPath id="SVGID_4_">
				<use xlink:href="#SVGID_3_"  overflow="visible"/>
			</clipPath>
			<path clip-path="url(#SVGID_4_)" fill="#FFFFFF" d="M15.642,16.338l0.093-7.925c0,0,1.772-1.119,3.73-0.839
				c0,0,1.305,1.119,3.636,0.093c0,0,2.236-0.746,3.729,0.467v8.111c0,0-1.119,1.864-2.331,2.237c0,0,0,6.153-0.745,9.883
				l-4.849-0.093c0,0-0.932-6.434-0.745-9.511C18.159,18.762,16.48,17.923,15.642,16.338"/>
		</g>
	</g>
	<g>
		<g>
			<defs>
				<rect id="SVGID_5_" x="0" y="0" width="41.629" height="28.366"/>
			</defs>
			<clipPath id="SVGID_6_">
				<use xlink:href="#SVGID_5_"  overflow="visible"/>
			</clipPath>
			<path clip-path="url(#SVGID_6_)" fill="#FFFFFF" d="M30.863,3.69c0,1.418-1.148,2.567-2.566,2.567s-2.568-1.149-2.568-2.567
				s1.15-2.567,2.568-2.567S30.863,2.272,30.863,3.69"/>
		</g>
	</g>
	<g>
		<g>
			<defs>
				<rect id="SVGID_7_" x="0" y="0" width="41.629" height="28.366"/>
			</defs>
			<clipPath id="SVGID_8_">
				<use xlink:href="#SVGID_7_"  overflow="visible"/>
			</clipPath>
			<path clip-path="url(#SVGID_8_)" fill="#FFFFFF" d="M23.794,13.843l0.073-6.17c0,0,1.379-0.87,2.902-0.653
				c0,0,1.017,0.871,2.831,0.073c0,0,1.741-0.581,2.903,0.363v6.314c0,0-0.871,1.452-1.815,1.742c0,0,0,4.791-0.579,7.694
				l-3.775-0.073c0,0-0.727-5.008-0.58-7.402C25.754,15.73,24.447,15.077,23.794,13.843"/>
		</g>
	</g>
	<g>
		<g>
			<defs>
				<rect id="SVGID_9_" x="0" y="0" width="41.629" height="28.366"/>
			</defs>
			<clipPath id="SVGID_10_">
				<use xlink:href="#SVGID_9_"  overflow="visible"/>
			</clipPath>
			<path clip-path="url(#SVGID_10_)" fill="#FFFFFF" d="M36.653,4.615c0,1.164-0.944,2.108-2.108,2.108
				c-1.165,0-2.109-0.944-2.109-2.108s0.944-2.108,2.109-2.108C35.709,2.506,36.653,3.451,36.653,4.615"/>
		</g>
	</g>
	<g>
		<g>
			<defs>
				<rect id="SVGID_11_" x="0" y="0" width="41.629" height="28.366"/>
			</defs>
			<clipPath id="SVGID_12_">
				<use xlink:href="#SVGID_11_"  overflow="visible"/>
			</clipPath>
			<path clip-path="url(#SVGID_12_)" fill="#FFFFFF" d="M30.847,12.952l0.061-5.067c0,0,1.132-0.715,2.384-0.536
				c0,0,0.834,0.715,2.325,0.06c0,0,1.43-0.477,2.384,0.298v5.185c0,0-0.716,1.193-1.491,1.431c0,0,0,3.934-0.476,6.318
				l-3.101-0.061c0,0-0.596-4.111-0.477-6.08C32.456,14.501,31.384,13.965,30.847,12.952"/>
		</g>
	</g>
	<g>
		<g>
			<defs>
				<rect id="SVGID_13_" x="0" y="0" width="41.629" height="28.366"/>
			</defs>
			<clipPath id="SVGID_14_">
				<use xlink:href="#SVGID_13_"  overflow="visible"/>
			</clipPath>
			<path clip-path="url(#SVGID_14_)" fill="#FFFFFF" d="M40.632,5.364c0,0.862-0.697,1.56-1.56,1.56s-1.561-0.698-1.561-1.56
				s0.698-1.56,1.561-1.56S40.632,4.502,40.632,5.364"/>
		</g>
	</g>
	<g>
		<g>
			<defs>
				<rect id="SVGID_15_" x="0" y="0" width="41.629" height="28.366"/>
			</defs>
			<clipPath id="SVGID_16_">
				<use xlink:href="#SVGID_15_"  overflow="visible"/>
			</clipPath>
			<path clip-path="url(#SVGID_16_)" fill="#FFFFFF" d="M36.336,11.534l0.044-3.749c0,0,0.838-0.529,1.764-0.397
				c0,0,0.618,0.529,1.722,0.044c0,0,1.058-0.353,1.764,0.221v3.837c0,0-0.529,0.882-1.104,1.058c0,0,0,2.911-0.353,4.676
				L37.88,17.18c0,0-0.441-3.044-0.354-4.5C37.526,12.681,36.732,12.284,36.336,11.534"/>
		</g>
	</g>
	<g>
		<g>
			<defs>
				<rect id="SVGID_17_" x="0" y="0" width="41.629" height="28.366"/>
			</defs>
			<clipPath id="SVGID_18_">
				<use xlink:href="#SVGID_17_"  overflow="visible"/>
			</clipPath>
			<path clip-path="url(#SVGID_18_)" fill="#FFFFFF" d="M4.296,5.744c0,0.862-0.698,1.56-1.56,1.56s-1.56-0.698-1.56-1.56
				s0.698-1.56,1.56-1.56C3.599,4.184,4.296,4.882,4.296,5.744"/>
		</g>
	</g>
	<g>
		<g>
			<defs>
				<rect id="SVGID_19_" x="0" y="0" width="41.629" height="28.366"/>
			</defs>
			<clipPath id="SVGID_20_">
				<use xlink:href="#SVGID_19_"  overflow="visible"/>
			</clipPath>
			<path clip-path="url(#SVGID_20_)" fill="#FFFFFF" d="M0,11.914l0.044-3.749c0,0,0.838-0.529,1.764-0.397
				c0,0,0.618,0.529,1.721,0.044c0,0,1.058-0.353,1.764,0.221v3.837c0,0-0.529,0.882-1.103,1.058c0,0,0,2.911-0.353,4.676
				L1.544,17.56c0,0-0.441-3.044-0.353-4.5C1.191,13.061,0.397,12.664,0,11.914"/>
		</g>
	</g>
	<g>
		<g>
			<defs>
				<rect id="SVGID_21_" x="0" y="0" width="41.629" height="28.366"/>
			</defs>
			<clipPath id="SVGID_22_">
				<use xlink:href="#SVGID_21_"  overflow="visible"/>
			</clipPath>
			<path clip-path="url(#SVGID_22_)" fill="#FFFFFF" d="M10.364,4.615c0,1.164-0.944,2.108-2.108,2.108
				c-1.165,0-2.109-0.944-2.109-2.108s0.944-2.108,2.109-2.108C9.419,2.506,10.364,3.451,10.364,4.615"/>
		</g>
	</g>
	<g>
		<g>
			<defs>
				<rect id="SVGID_23_" x="0" y="0" width="41.629" height="28.366"/>
			</defs>
			<clipPath id="SVGID_24_">
				<use xlink:href="#SVGID_23_"  overflow="visible"/>
			</clipPath>
			<path clip-path="url(#SVGID_24_)" fill="#FFFFFF" d="M4.558,12.952l0.06-5.067c0,0,1.132-0.715,2.384-0.536
				c0,0,0.834,0.715,2.324,0.06c0,0,1.431-0.477,2.385,0.298v5.185c0,0-0.716,1.193-1.491,1.431c0,0,0,3.934-0.476,6.318l-3.1-0.061
				c0,0-0.596-4.111-0.477-6.08C6.167,14.501,5.095,13.965,4.558,12.952"/>
		</g>
	</g>
	<g>
		<g>
			<defs>
				<rect id="SVGID_25_" x="0" y="0" width="41.629" height="28.366"/>
			</defs>
			<clipPath id="SVGID_26_">
				<use xlink:href="#SVGID_25_"  overflow="visible"/>
			</clipPath>
			<path clip-path="url(#SVGID_26_)" fill="#FFFFFF" d="M17.49,3.69c0,1.418-1.149,2.567-2.567,2.567s-2.568-1.149-2.568-2.567
				s1.15-2.567,2.568-2.567S17.49,2.272,17.49,3.69"/>
		</g>
	</g>
	<g>
		<g>
			<defs>
				<rect id="SVGID_27_" x="0" y="0" width="41.629" height="28.366"/>
			</defs>
			<clipPath id="SVGID_28_">
				<use xlink:href="#SVGID_27_"  overflow="visible"/>
			</clipPath>
			<path clip-path="url(#SVGID_28_)" fill="#FFFFFF" d="M10.42,13.843l0.073-6.17c0,0,1.379-0.87,2.903-0.653
				c0,0,1.016,0.871,2.831,0.073c0,0,1.741-0.581,2.903,0.363v6.314c0,0-0.871,1.452-1.815,1.742c0,0,0,4.791-0.58,7.694
				l-3.775-0.073c0,0-0.726-5.008-0.58-7.402C12.38,15.73,11.073,15.077,10.42,13.843"/>
		</g>
	</g>
</g>
</svg>
