<?xml version="1.0" encoding="utf-8"?>
<!-- Generator: Adobe Illustrator 17.0.0, SVG Export Plug-In . SVG Version: 6.00 Build 0)  -->
<!DOCTYPE svg PUBLIC "-//W3C//DTD SVG 1.1//EN" "http://www.w3.org/Graphics/SVG/1.1/DTD/svg11.dtd">
<svg version="1.1" id="Layer_1" xmlns="http://www.w3.org/2000/svg" xmlns:xlink="http://www.w3.org/1999/xlink" x="0px" y="0px"
	 width="104.861px" height="104.861px" viewBox="0 0 104.861 104.861" enable-background="new 0 0 104.861 104.861"
	 xml:space="preserve">
<g>
	<circle fill="#ED9B14" cx="52.431" cy="52.431" r="52.431"/>
</g>
<g>
	<path fill="#FFFFFF" d="M43.201,55.368c6.931-4.731,14.526-12.991,14.526-22.163c0-3.818-1.867-5.769-5.229-5.769
		c-3.279,0-4.69,3.113-4.69,6.599c0,1.66,0.291,3.528,0.789,5.146l-13.032,2.49c-0.789-3.03-1.204-5.977-1.204-8.716
		c0-10.044,5.437-17.722,18.137-17.722c12.202,0,19.216,6.724,19.216,18.801c0,10.667-5.396,20.461-14.651,25.815V71.47H43.201
		V55.368z M43.201,77.946h13.862v13.447H43.201V77.946z"/>
</g>
</svg>
