<?xml version="1.0" encoding="utf-8"?>
<!-- Generator: Adobe Illustrator 17.0.0, SVG Export Plug-In . SVG Version: 6.00 Build 0)  -->
<!DOCTYPE svg PUBLIC "-//W3C//DTD SVG 1.1//EN" "http://www.w3.org/Graphics/SVG/1.1/DTD/svg11.dtd">
<svg version="1.1" id="zeichensetzen_xA0_Bild_1_" xmlns="http://www.w3.org/2000/svg" xmlns:xlink="http://www.w3.org/1999/xlink"
	 x="0px" y="0px" width="1460px" height="2380px" viewBox="0 0 1460 2380" enable-background="new 0 0 1460 2380"
	 xml:space="preserve">
<g>
	<path fill="#39AA3F" d="M1460,32C973.382,32,486.645,32,0,32C4.126,23.452-5.503,5.503,0,0c1.467-1.467,34.226,0,46,0
		c454.723,0,910.793,0,1367,0c10.975,0,41.444-2.465,45,0C1462.996,3.464,1458.314,26.2,1460,32z"/>
	<path fill="#39AA3F" d="M727,104c3.908,1.487,6.583,9.784,11,17c8.166,13.342,10.928,15.863-4,25c-4.8,2.938-8.133,5.021-13,8
		c-5.854,3.583-24.666,10.389-26,15c-1.333,4.608,16.228,27.854,20,34c1.354,2.205,17.507,32.171,21,33
		c6.675,1.584,29.852-22.789,36-22c2.673,0.343,22.455,29.826,22,33c-1.193,8.311-33.306,14.756-36,23
		c-2.021,6.182,19.613,32.605,23,38c2.33,3.712,17.309,36.498,22,38c3.512,1.125,24.911-14.707,27-16
		c6.321-3.913,22.239-17.389,27-16c3.967,1.157,7.444,12.901,10,17c2.665,4.274,10.823,13.743,10,17
		c-0.825,3.266-19.889,12.88-25,16c-23.566,14.384-40.137,24.228-64,39c-3.021,1.871-10.511,8.263-12,8
		c-6.053-1.068-15.301-25.066-19-31c-38.423-61.63-74.02-119.224-113-183c-3.938-6.443-19.854-24.25-19-30
		c0.72-4.845,17.583-11.376,25-16c23.967-14.942,55.006-37.62,76-48C727.061,102.476,726.694,103.884,727,104z"/>
	<path fill="#39AA3F" d="M601,187c26.251,24.237,29.84,91.347,39,137c4.834,24.093,12.106,52.851,18,81
		c3.458,16.517-0.123,31.402,14,23c13.776-8.196,24.844-15.697,40-25c2.982-1.831,13.239-10.244,15-10
		c4.024,0.558,8.746,13.329,11,17c1.229,2.003,11.557,12.189,11,16c-0.752,5.147-20.666,13.453-28,18
		c-23.662,14.668-46.285,29.505-70,44c-3.246,1.984-10.583,8.498-14,8c-3.387-0.493-19.891-27.247-21-32
		c-11.666-49.999-22.197-107.021-34-163c-2.596-12.313-7.343-51.84-11-54c-2.798-1.652-26.815,15.661-29,17
		c-5.683,3.483-23.67,18.598-29,17c-1.261-0.378-20.957-30.572-20-34c0.888-3.18,21.146-12.34,27-16
		c17.339-10.84,34.051-21.27,53-33C582.151,192.335,594.369,180.877,601,187z"/>
	<path fill="#39AA3F" d="M475,264c3.55,3.271,20.979,29.165,20,33c-1.882,7.376-32.26,13.181-34,22c-0.845,4.283,12.125,19.66,16,26
		c32.865,53.771,62.548,101.346,96,156c3.466,5.663,15.906,23.066,15,26c-0.958,3.104-19.49,11.55-25,15
		c-5.662,3.545-21.689,15.462-24,15c-3.149-0.63-12.469-20.304-16-26c-33.272-53.672-62.603-102.127-96-156
		c-3.177-5.124-14.131-25.477-16-26c-7.328-2.052-29.303,24.344-37,22c-2.869-0.874-9.418-15.416-11-18
		c-2.535-4.142-11.339-15.869-11-18c0.684-4.299,23.662-16.126,30-20c21.188-12.95,38.018-22.048,62-37
		C452.341,272.8,468.163,257.701,475,264z"/>
	<path fill="#39AA3F" d="M1103,371c8.197,17.619,15,31.11,25,51c1.462,2.908,15.526,25.213-1,23c-6.699-0.897-17.144-22.434-22-29
		c-14.65-19.811-25.926-35.844-42-58c-4.702-6.481-22.193-24.069-21-29c0.255-1.054,27.486-19.498,30-19
		c4.057,0.804,12.621,23.167,16,30C1094.123,352.382,1098.053,360.364,1103,371z"/>
	<path fill="#39AA3F" d="M348,339c4.019,2.236,20.366,30.264,20,32c-0.956,4.541-22.674,13.938-26,16
		c-2.712,1.682-24.767,11.887-26,16c-1.623,5.414,16.299,28.063,20,34c3.471,5.568,5.102,8.998,10,17c1.702,2.78,6.779,15.139,10,16
		c8.044,2.151,29.145-24.486,37-23c1.296,0.245,23.122,32.473,22,36c-1.679,5.278-35.299,15.01-37,22
		c-1.026,4.217,19.524,32.337,23,38c4.507,7.342,6.583,9.311,12,18c1.913,3.068,6.018,17.754,11,19c9.249,2.313,42.929-33.443,52-32
		c3.097,0.493,22.209,31.551,22,33c-0.465,3.224-19.468,13.575-25,17c-20.759,12.851-32.702,19.036-52,31
		c-5.223,3.238-20.623,16.89-25,16c-5.285-1.074-14.861-24.219-19-31c-37.39-61.262-73.686-120.207-113-183
		c-4.097-6.544-19.556-26.589-19-30c0.795-4.882,18.771-12.188,25-16c23.76-14.543,55.307-37.286,76-47
		C347.746,337.181,346.364,338.09,348,339z"/>
	<path fill="#39AA3F" d="M1036,392c10.628-1.999,23.529,5.488,29,12c15.232,18.132,31.224,51.13,46,75
		c3.66,5.913,16.001,21.079,15,25c-0.405,1.587-12.663,8.543-15,10c-5.127,3.196-11.674,9.649-15,9c-2.885-0.563-16.23-24.37-16-24
		c-11.429-18.332-17.875-30.302-30-50c-3.985-6.474-24.948-38.498-25-12c-0.021,10.851,31.848,53.507,42,70
		c2.729,4.433,14.628,18.334,14,23c-0.37,2.75-25.367,20.538-29,20c-4.461-0.66-9.613-14.369-10-15
		c-14.262-23.301-31.518-51.934-46-75c-5.902-9.4-19.32-26.149-18-30c1.467-4.276,4.938-2.117,8-4c6.946-4.271,20.689-16.864,25-10
		c4.961,7.9,3.83-4.597,8-11C1021.965,400.448,1029.789,393.168,1036,392z"/>
	<path fill="#39AA3F" d="M190,435c21.478-2.112,46.987,8.348,60,21c3.703,3.601,14.101,16.373,14,19
		c-0.266,6.921-28.092,24.22-35,30c-1.632,1.365-7.88,10.48-11,10c-3.896-0.6-10.029-15.464-13-19c-8.606-10.244-32.685-17.982-35,3
		c-4.866,44.105,61.508,44.237,95,52c42.448,9.839,93.475,42.552,88,96c-5.735,55.986-79.526,84.08-126,49
		c-6.743-5.09-26.188-21.053-26-27c0.164-5.186,34.903-33.086,42-39c4.505-3.754,13.167,15.401,17,20
		c6.963,8.355,36.364,27.757,41,3c4.056-21.66-21.474-36.74-36-43c-18.97-8.174-44.324-10.581-64-14
		c-43.919-7.633-89.462-35.798-83-94C121.687,468.795,154.31,438.509,190,435z"/>
	<path fill="#39AA3F" d="M1153,447c1.426,0.161,20.496,23.797,19,29c-0.483,1.681-27.443,17.811-30,17
		c-0.34-0.107-17.933-25.913-17-29C1125.469,462.448,1151.449,446.824,1153,447z"/>
	<path fill="#39AA3F" d="M942,452c24.191-3.846,36.455,12.073,46,27c3.682,5.757,14.264,20.237,14,22
		c-0.607,4.061-15.722,10.709-21,14c-2.922,1.822-20.023,9.061-21,13c-0.637,2.569,10.389,18.005,11,19
		c1.212,1.974,5.646,15.916,14,15c17.588-1.928-5.896-22.057-5-28c0.344-2.28,26.619-19.908,30-19c7.101,1.907,13.752,24.987,14,31
		c1.682,40.716-50.319,58.179-74,35c-8.531-8.352-15.972-24.229-25-39c-10.666-17.452-28.917-38.375-19-63
		C910.457,467.934,925.847,454.568,942,452z M949,511c18.125,5.24,6.413-27.783-4-29C927.559,479.962,946.42,510.254,949,511z"/>
	<path fill="#39AA3F" d="M802,477c4.91,0.664,12.406,16.861,18,26c3.656,5.974,13.807,26.039,15,26c2.197-0.072,7.902-18.263,14-23
		c11.997-9.321,30.357-2.583,39,8c15.757,19.295,31.174,50.219,46,74c3,4.813,15.42,23.043,15,25c-0.387,1.801-27.811,19.324-30,19
		c-4.805-0.711-13.381-19.77-16-24c-11.582-18.709-19.063-29.718-31-49c-2.746-4.436-8.021-22.851-16-23c-6.188-0.116-8.092,7-8,11
		c0.231,10.012,32.293,55.095,42,71c3.572,5.853,15.123,18.774,14,23c-0.416,1.566-27.279,19.094-31,18
		c-5.168-1.519-20.477-33.621-25-41c-23.273-37.97-39.167-63.5-63-102c-2.238-3.615-13.486-17.28-13-20
		C772.387,493.84,801.432,476.923,802,477z"/>
	<path fill="#39AA3F" d="M771,560c9.982-0.47,24.624,5.785,33,16c3.037,3.705,13.329,18.315,13,20c-0.697,3.57-29.975,19.296-31,19
		c-3.811-1.101-10.813-30.654-23-23c-8.929,5.608,13.81,34.164,18,41c2.621,4.276,18.25,38.064,27,38
		c17.523-0.129-7.836-31.399-7-34c0.738-2.3,12.939-7.739,15-9c3.654-2.236,12.07-9.278,14-9c5.915,0.854,18.063,27.276,18,38
		c-0.201,33.9-46.508,58.027-73,34c-8.646-7.841-18.235-27.761-27-42c-12.963-21.059-31.839-49.72-11-72
		C742.637,570.973,758.541,560.587,771,560z"/>
	<path fill="#39AA3F" d="M673,565c1.128,0.159,19.46,23.479,19,27c-0.212,1.624-26.611,20.495-30,20c-3.018-0.44-9.118-12.577-10-14
		c-1.798-2.901-9.566-10.352-9-14C643.365,581.648,670.808,564.691,673,565z"/>
	<path fill="#39AA3F" d="M697,604c0.917,0.122,2.634,0.404,3,1c15.533,25.294,35.965,58.45,54,88c5.229,8.567,18.045,26.306,17,30
		c-0.285,1.008-27.44,18.203-29,18c-4.729-0.616-15.812-22.177-20-29c-13.701-22.321-21.905-36.972-36-60
		c-3.763-6.147-19.393-24.813-18-30c1.09-4.06,27.284-16.176,27-16C695.688,605.572,695.694,603.827,697,604z"/>
	<path fill="#39AA3F" d="M537,641c1.135,0.25,13.222,18.667,14,22c7.3,31.29,13.914,70.267,22,108c1.991,9.292,5.402,34.563,7,36
		c6.649,5.981,35.826-27.714,45-25c3.5,1.035,13.241,22.091,13,23c-1.324,4.984-32.126,19.405-38,23
		c-7.921,4.849-32.332,24.597-38,23c-1.905-0.536-11.865-17.82-13-21c-7.744-21.696-10.008-49.542-15-73
		c-3.346-15.721-7.01-35.809-11-55c-0.771-3.706-3.683-17.807-4-18c-5.548-3.386-32.322,24.063-38,23
		c-1.808-0.339-14.48-18.842-14-22c1.177-7.742,26.135-17.125,34-22C513.419,655.301,530.665,639.604,537,641z"/>
	<path fill="#39AA3F" d="M634,643c16.068-1.84,29.023,6.737,38,18c3.94,4.944,20.451,28.159,19,33c-1.575,5.256-18.255,11.32-21,13
		c-3.429,2.099-19,7.696-20,13c-0.966,5.123,19.169,33.748,25,33c15.807-2.027-6.371-26.044-6-28c-0.007,0.038,27.541-20.053,31-19
		c1.304,0.397,12.466,21.188,13,25c6.192,44.166-50.956,68.382-76,38c-12.314-14.938-34.355-49.023-41-68
		C585.169,670.069,610.549,645.685,634,643z M640,703c-0.705-0.11,10.481-4.717,11-8c0.738-4.674-14.175-22.533-19-22
		C618.435,674.498,635.817,702.349,640,703z"/>
	<path fill="#39AA3F" d="M434,765c30.529-3.219,44.906,41.668,58,63c4.236,6.901,8.95,15.364,15,25c3.863,6.153,15.866,21.087,15,24
		c-0.553,1.859-16.078,9.048-16,9c-5.698,3.532-11.38,9.941-15,9c-4.044-1.052-13.215-22.121-15-25c-9.71-15.663-18.516-30.58-30-49
		c-4.032-6.468-24.415-37.092-25-12c-0.273,11.733,16.184,30.528,27,48c4.99,8.061,9.992,14.911,15,23
		c2.648,4.278,14.689,18.892,14,23c-0.327,1.949-24.677,19.555-29,19c-6.427-0.824-16.835-23.829-20-29
		c-13.68-22.35-20.626-34.953-36-60c-4.775-7.78-19.116-26.267-18-30c1.543-5.162,30.545-18.773,33-15c4.983,7.662,2.779-2.064,7-9
		C417.362,773.476,425.169,765.931,434,765z"/>
	<path fill="#39AA3F" d="M333,777c4.562,2.556,16.181,24.81,16,26c-0.559,3.675-28.037,20.123-29,20c-2.01-0.257-19.325-25.94-19-28
		C301.695,790.6,330.769,775.75,333,777z"/>
	<path fill="#D2A2BD" d="M1280,795c34.98-5.15,57.586,22.594,44,56c-17.112,42.079-85.526,51.121-124,76
		c-2.971,1.921-26.075,24.9-32,19c-4.677-4.657,9.561-29.292,13-37C1200.91,864.368,1227.67,802.705,1280,795z M1244,817
		c-19.359,15.283-46.434,60.13-56,84c-2.575,6.426-15.515,31.534-13,35c4.195,5.781,23.474-14.702,24-15
		c35.643-20.162,103.822-35.493,120-70c14.923-31.831-11.709-54.866-40-51C1265.893,801.791,1252.935,809.946,1244,817z"/>
	<path fill="#FFFFFF" d="M1279,800c28.291-3.866,54.923,19.169,40,51c-16.178,34.507-84.357,49.838-120,70
		c-0.526,0.298-19.805,20.781-24,15c-2.515-3.466,10.425-28.574,13-35c9.566-23.87,36.641-68.717,56-84
		C1252.935,809.946,1265.893,801.791,1279,800z"/>
	<path fill="#39AA3F" d="M355,815c1.492,0.205,1.326,0.063,2,1c18.886,26.266,36.674,58.144,55,88c5.265,8.577,17.98,26.564,17,30
		c-0.848,2.971-28.81,18.666-31,18c-4.441-1.349-15.716-26.336-18-30c-16.428-26.35-28.868-46.089-46-74
		c-1.585-2.582-9.414-11.653-9-14C325.757,829.712,354.331,814.908,355,815z"/>
	<path fill="#39AA3F" d="M195,853c0.104,0.042-0.074,0.894,0,1c24.763,35.7,49.588,80.009,75,121c4.621,7.454,25.777,34.583,25,40
		c-0.229,1.596-25.447,20.438-29,20c-9.256-1.143-2.343-13.203-9,3c-7.215,17.561-35.084,21.564-49,5
		c-7.502-8.93-15.981-25.244-25-40c-9.753-15.958-26.12-32.779-26-53c0.076-12.757,8.722-25.685,19-28c6.502-1.465,13.751,4.13,18,1
		c2.718-2.002-9.917-17.718-15-26c-1.916-3.122-16.636-21.518-15-27C164.451,868.487,192.171,851.855,195,853z M215,984
		c6.267,10.252,17.724,37.69,26,37c1.356-0.113,7.587-4.05,7-12c-0.68-9.217-12.573-21.02-20-33c-6.627-10.69-17.483-40.426-31-35
		C185.014,945.812,209.695,975.32,215,984z"/>
	<path fill="#39AA3F" d="M291,854c23.966-3.16,34.187,12.76,44,28c3.615,5.613,15.326,18.659,14,23c-0.611,2-16.827,10.413-21,13
		c-2.721,1.687-19.914,8.082-21,12c-1.385,4.998,20.844,35.05,26,34c15.838-3.224-7.147-24.818-6-29
		c0.403-1.472,28.685-18.719,31-18c6.498,2.017,14.297,28.08,13,39c-3.827,32.229-52.928,51.538-76,24
		c-9.269-11.063-15.744-25.195-25-40c-8.628-13.801-19.323-27.369-19-45C251.439,871.059,272.873,856.39,291,854z M298,914
		c-0.547-0.083,10.522-4.792,11-8c0.682-4.574-14.465-22.49-19-22C278.9,885.201,289.623,912.726,298,914z"/>
	<path fill="#D2A2BD" d="M1137,856c16.422,0,30.005,13.647,28,36c-2.572,28.678-36.086,47.476-43,72
		c-2.104,7.461-2.234,28.557-14,27c-5.479-0.725-11.615-37.145-13-49C1090.777,905.854,1099.649,856,1137,856z M1102,937
		c1.391,10.921,5.148,38.568,12,37c3.262-0.747,3.162-10.361,6-17c8.574-20.06,35.43-40.541,39-64c3.687-24.222-9.979-31.713-25-30
		C1100.585,866.811,1097.996,905.559,1102,937z"/>
	<path fill="#FFFFFF" d="M1134,863c15.021-1.713,28.687,5.778,25,30c-3.57,23.459-30.426,43.94-39,64
		c-2.838,6.639-2.738,16.253-6,17c-6.852,1.568-10.609-26.079-12-37C1097.996,905.559,1100.585,866.811,1134,863z"/>
	<path fill="#FFFFFF" d="M1034,882c11.876,0.476,15.217,36.031,18,50c23.056,115.744,48.522,232.436,73,351
		c0.78,3.778,1.217,8.543,2,14c-0.521-3.64,6.496,9.407,0,12c0.716-0.285-10.317-8.302-11-9c-6.079-6.219-18.692-23.247-26-30
		c-4.137-3.823-10.045-4.623-13-7c-4.82-3.879-14.635-15.906-19-19c-1.329-0.942-4.611,0.87-6,0c-1.698-1.063-1.148-4.621-3-6
		c-7.18-5.348-19.164-7.578-26-12c-3.765-2.436-3.723-4.026-10-7c-0.727-0.344-11.348-5.167-12-6c-3.129-3.996-5.629-27.782-8-39
		c-13.987-66.186-26.098-124.756-40-191c-4.864-23.178-17.055-53.496-15-77c0.557-6.363,38.187-11.993,48-14
		C1004.662,888.184,1020.58,881.462,1034,882z"/>
	<path fill="#D2A2BD" d="M1460,955c0,1.667,0,3.333,0,5c-10.969-7.088-25.104-8.488-38-13c-3.083-1.079-5.638-5.222-9-6
		c-3.604-0.834-8.301,0.995-12,0c-3.476-0.935-6.238-5.157-10-6c-3.793-0.85-8.527,0.803-13,0c-4.446-0.798-9.055-4.51-13-5
		c-5.391-0.67-10.602,2.478-16,2c-4.391-0.389-8.706-3.447-13-4c-13.015-1.675-29.182,1.836-42,3
		c-82.625,7.5-158.193,67.698-168,145c-2.822,22.251,10.535,58.971,17,89c7.047,32.732,9.719,62.154,18,87
		c3.669,11.006,11.303,19.929,17,30c3.404,6.02,18.173,31.397,28,33c12.71,2.072,35.672-12.949,48-17
		c10.753-3.533,25.037-6.479,38-10c42.478-11.535,102.922-25.091,140-8c8.014,3.694,22.322,16.27,28,24c0,5.667,0,11.333,0,17
		c-11.082-43.633-56.225-43.128-103-40c-33.938,2.27-70.754,16.721-101,25c-18.043,4.939-41.91,15.779-52,14
		c-12.9-2.275-27.189-31.521-33-42c-3.553-6.407-10.04-11.414-12-16c-10.534-24.643-14.433-66.35-20-93
		c-7.932-37.967-22.07-83.297-13-118c2.215-8.475,7.717-21.218,13-32c12.076-24.645,50.229-58.698,78-72
		C1290.074,911.998,1391.648,917.732,1460,955z"/>
	<path fill="#FFFFFF" d="M1460,960c0,114.667,0,229.333,0,344c-5.678-7.73-19.986-20.306-28-24c-37.078-17.091-97.522-3.535-140,8
		c-12.963,3.521-27.247,6.467-38,10c-12.328,4.051-35.29,19.072-48,17c-9.827-1.603-24.596-26.98-28-33
		c-5.697-10.071-13.331-18.994-17-30c-8.281-24.846-10.953-54.268-18-87c-6.465-30.029-19.822-66.749-17-89
		c9.807-77.302,85.375-137.5,168-145c12.818-1.164,28.985-4.675,42-3c4.294,0.553,8.609,3.611,13,4c5.398,0.478,10.609-2.67,16-2
		c3.945,0.49,8.554,4.202,13,5c4.473,0.803,9.207-0.85,13,0c3.762,0.843,6.524,5.065,10,6c3.699,0.995,8.396-0.834,12,0
		c3.362,0.778,5.917,4.921,9,6C1434.896,951.512,1449.031,952.912,1460,960z M1152,1077c-1.924,6.345-4.715,17.544-4,21
		c4.339,20.986,24.67,3.717,28-5c7.234-18.94,15.146-52.972,34-58c11.74-3.131,12.795,3.339,19-3c15.66-15.999-14.479-23.351-20-23
		C1181.353,1010.757,1159.86,1051.071,1152,1077z M1218,1116c-6.808,3.964-16.695,19.999-24,19c-6.884-0.941-5.876-12.84-15-13
		c-7.754-0.136-13.43,9.558-14,21c-0.875,17.56,3.762,55.733,14,62c17.072,10.449,25.316-8.779,36-15
		c21.017-12.237,50.358-24.929,84-18c4.094,0.843,27.89,11.568,29-6c1.037-16.402-30.244-21.705-43-23
		c-17.478-1.774-40.61,4.148-55,10c1.657-0.674-13.429,11.297-16,6c-7.6-15.655,38.865-26.415,44-34
		c9.697-14.324-3.144-20.421-18-17C1234.326,1109.307,1224.854,1112.009,1218,1116z"/>
	<path fill="#D2A2BD" d="M1209,1009c5.521-0.351,35.66,7.001,20,23c-6.205,6.339-7.26-0.131-19,3c-18.854,5.028-26.766,39.06-34,58
		c-3.33,8.717-23.661,25.986-28,5c-0.715-3.456,2.076-14.655,4-21C1159.86,1051.071,1181.353,1010.757,1209,1009z M1162,1065
		c-3.514,9.965-8.881,26.118-7,31c7.52,19.509,15.28-10.063,17-15c5.333-15.31,22.74-48.018,36-52c2.774-0.833,23.127,2.48,19-9
		c-1.822-5.07-17.998-4.774-22-4C1186.498,1019.582,1167.798,1048.558,1162,1065z"/>
	<path fill="#8D4B95" d="M1205,1016c4.002-0.774,20.178-1.07,22,4c4.127,11.48-16.226,8.167-19,9c-13.26,3.982-30.667,36.69-36,52
		c-1.72,4.937-9.48,34.509-17,15c-1.881-4.882,3.486-21.035,7-31C1167.798,1048.558,1186.498,1019.582,1205,1016z"/>
	<path fill="#D2A2BD" d="M1240,1108c14.856-3.421,27.697,2.676,18,17c-5.135,7.585-51.6,18.345-44,34c2.571,5.297,17.657-6.674,16-6
		c14.39-5.852,37.522-11.774,55-10c12.756,1.295,44.037,6.598,43,23c-1.11,17.568-24.906,6.843-29,6
		c-33.642-6.929-62.983,5.763-84,18c-10.684,6.221-18.928,25.449-36,15c-10.238-6.267-14.875-44.44-14-62
		c0.57-11.442,6.246-21.136,14-21c9.124,0.16,8.116,12.059,15,13c7.305,0.999,17.192-15.036,24-19
		C1224.854,1112.009,1234.326,1109.307,1240,1108z M1206,1133c-3.434,3.498-10.703,20.295-16,19c-7.791-1.905-1.385-23.971-11-25
		c-10.086-1.08-8.416,28.103-7,39c1.285,9.891,4.268,31.946,11,35c10.806,4.901,21.502-10.59,29-15
		c16.904-9.941,42.469-24.408,67-23c6.685,0.384,37.434,12.499,41,5c4.874-10.249-14.308-16.295-18-17
		c-18.498-3.53-50.637,0.099-67,6c-6.192,2.233-16.041,15.797-25,11c-14.426-7.725,14.781-32.174,20-35
		c5.096-2.759,32.531-10.809,25-20c-2.492-3.042-8.816-0.476-12,0C1229.275,1115.053,1213.387,1125.473,1206,1133z"/>
	<path fill="#8D4B95" d="M1243,1113c3.184-0.476,9.508-3.042,12,0c7.531,9.191-19.904,17.241-25,20
		c-5.219,2.826-34.426,27.275-20,35c8.959,4.797,18.808-8.767,25-11c16.363-5.901,48.502-9.53,67-6c3.692,0.705,22.874,6.751,18,17
		c-3.566,7.499-34.315-4.616-41-5c-24.531-1.408-50.096,13.059-67,23c-7.498,4.41-18.194,19.901-29,15
		c-6.732-3.054-9.715-25.109-11-35c-1.416-10.897-3.086-40.08,7-39c9.615,1.029,3.209,23.095,11,25c5.297,1.295,12.566-15.502,16-19
		C1213.387,1125.473,1229.275,1115.053,1243,1113z"/>
	<path fill="#E0147A" d="M774,1186c84.413-17.313,179.728-0.262,235,37c45.734,21.891,88.906,57.496,121,99
		c75.317,69.781,111.184,258.686,54,370c-57.108,137.33-185.74,237.789-365,230c-35.424-1.539-59.93-6.92-88-13
		c-12.228-2.648-34.09-11.713-43-16c-2.758-1.327-5.262-5.337-8-6c-17.953-4.349-15.706,7.98-20,17
		c-5.48,11.512-14.104,21.341-20,30c-21.016,30.867-46.717,69.158-77,99c-33.14,32.656-74.712,59.041-116,79
		c-45.167,21.834-97.346,44.58-157,52c-104.888,13.046-213.698-8.321-290-50c0-0.667,0-1.333,0-2c8.726,7.273,21.816,7.813,33,13
		c4.498,2.086,7.164,7.448,12,9c10.704,3.436,18.363,4.327,31,10c12.963,5.82,29.383,2.729,43,7c28.566,8.96,81.786,18.645,120,14
		c3.861-0.469,7.182-3.451,11-4c11.91-1.713,24.146,2.358,36,1c5.135-0.588,8.566-4.492,14-6c8.883-2.466,19.147,0.706,27-1
		c3.694-0.803,6.182-4.806,10-6c5.623-1.759,12.491,0.464,18-1c3.89-1.033,6.553-5.652,11-7c11.455-3.473,21.41-4.205,33-8
		c4.047-1.325,6.161-5.287,10-7c17.549-7.828,41.67-15.958,60-26c14.602-8,28.843-23.572,44-32c8.764-4.873,19.323-11.39,28-19
		c10.311-9.043,16.51-16.541,24-26c10.193-12.872,27.568-24.034,38-37c14.784-18.375,24.301-39.743,36-56
		c5.72-7.948,31.96-40.884,19-51c-2.372-1.852-4.108-0.454-7-2c-40.244-21.516-74.521-56.116-105-94
		c-13.769-17.113-29.527-38.016-41-60c-2-3.831-3.064-17.208-9-17c-4.011,0.141-3.409,6.249-7,11
		c-12.914,17.086-31.567,32.185-49,49c-19.056,18.381-38.255,40.735-62,58c-1.755,1.276-5.225,0.684-7,2
		c-18.456,13.687-34.399,31.853-52,42c-2.391,1.378-5.83,0.473-8,2c-10.746,7.563-21.616,21.27-34,32
		c-20.543,17.802-36.336,30.379-56,48c-5.957,5.338-17.28,20.687-23,20c-5.808-0.697-26.904-34.387-33-43
		c-8.563-12.098-20.671-23.722-31-36c-42.219-50.187-90.742-91.057-134-140c0-1.333,0-2.667,0-4
		c58.312,61.275,121.527,121.245,175,190c5.997,7.71,18.824,27.661,24,28c9.791,0.642,33.512-30.791,39-36
		c37.585-35.677,75.62-61.076,115-90c22.51-16.533,46.648-38.152,71-59c22.783-19.505,48.406-43.938,64-67
		c5.686-8.408,8.39-17.304,6-26c-4.61-16.773-13.438-33.584-18-51c-9.234-35.258-11.382-82.326-7-123c0.624-5.786,3.883-10.895,3-17
		c-1.551-10.725-20.63-22.805-29-27c-46.198-23.157-123.049-32.776-166-3c-12.36,8.568-33.365,36.05-41,36
		c-4.281-0.028-8.754-8.906-14-16c-7.944-10.741-22.516-28.373-33-36c-47.147-34.299-143.915-26.48-189,5c0-1,0-2,0-3
		c31.494-18.868,61.688-25.2,98-30c11.674-1.543,31.526,1.036,42,4c25.891,7.327,46.477,15.708,63,33
		c9.133,9.559,25.938,38.808,33,39c8.063,0.22,28.508-27.329,36-33c7.853-5.943,14.563-7.74,24-11c9.779-3.378,8.815-5.662,24-7
		c16.985-1.496,37.217-9.878,62-3c3.379,0.938,5.524,4.688,9,6c10.62,4.007,23.979,2.571,34,7c5.652,2.498,14.745,6.949,22,11
		c3.35,1.87,19.873,17.952,23,17c3.655-1.113,4.987-16.995,6-21c12.77-50.484,32.265-94.549,61-132c2.026-2.641,14.948-16.421,15-19
		c0.052-2.606-13.261-16.389-19-21c-6.473-5.201-16.122-8.002-23-13c-2.687-1.952-3.524-6.26-6-8c-7.75-5.447-18.94-8.86-26-14
		c-3-2.184-4.556-6.694-7-8c-2.819-1.507-7.351-0.362-11-2c-3.423-1.536-4.785-6.184-8-8c-3.347-1.891-8.516-0.872-13-3
		c-5.132-2.436-8.708-8.363-13-10c-32.01-12.207-69.103-22.516-110-34c-49.871-14.005-106.341-9.51-157-6
		c-6.02,0.417-10.292,4.453-16,6c-9.333,2.529-19.028-0.436-26,1c-3.665,0.755-6.472,4.648-11,6c-5.125,1.53-11.608-0.271-17,1
		c-3.658,0.863-6.208,5.457-11,7c-4.031,1.299-9.046-0.23-13,1c-4.385,1.364-6.92,6.009-11,7c-3.647,0.886-7.071-0.888-10,0
		c-8.472,2.568-18.331,10.978-28,15c-5.869,2.441-12.679,0.137-16,7c0-1.667,0-3.333,0-5c29.786-11.091,56.85-25.686,86-34
		c127.49-36.364,268.252-10.118,366,38c27.009,13.295,57.107,34.428,82,54c5.408,4.252,14.695,17.643,20,18
		c9.325,0.628,33.167-29.23,41-36C643.99,1229.663,702.201,1200.243,774,1186z M802,1280c-13.819,1.506-43.515,1.2-47,10
		c-1.822,4.602,3.215,31.341,6,43c22.422,93.847,33.709,193.276,57,281c5.021,18.911,7.242,80.313,16,86
		c2.47,1.604,36.111,0.427,40-7c2.41-4.604-0.389-13.768,0-23c3.164-75.07-6.439-156.365-5-234c0.748-40.351-2.102-87.273-3-135
		c-0.422-22.453,5.008-27.836-12-27C838.154,1274.779,824.342,1277.565,802,1280z M853,1740c-13.672,1.563-42.7,1.498-46,7
		c-4.619,7.701,2.955,40.117,4,49c0.742,6.312,1.287,45.525,6,50c6.49,6.163,48.432-3.279,55-4c9.902-1.087,47.626-1.78,51-11
		c3.42-9.346-2.947-31.743-5-49c-2.195-18.464,0.65-47.227-17-48C887.5,1733.408,870.327,1738.019,853,1740z"/>
	<path fill="#DF0024" d="M0,1452c0-71.667,0-143.332,0-215c3.321-6.863,10.131-4.559,16-7c9.669-4.022,19.528-12.432,28-15
		c2.929-0.888,6.353,0.886,10,0c4.08-0.991,6.615-5.636,11-7c3.954-1.23,8.969,0.299,13-1c4.792-1.543,7.342-6.137,11-7
		c5.392-1.271,11.875,0.53,17-1c4.528-1.352,7.335-5.245,11-6c6.972-1.436,16.667,1.529,26-1c5.708-1.547,9.98-5.583,16-6
		c50.659-3.51,107.129-8.005,157,6c40.897,11.484,77.99,21.793,110,34c4.292,1.637,7.868,7.564,13,10c4.484,2.128,9.653,1.109,13,3
		c3.215,1.816,4.577,6.464,8,8c3.649,1.638,8.181,0.493,11,2c2.444,1.306,4,5.816,7,8c7.06,5.14,18.25,8.553,26,14
		c2.476,1.74,3.313,6.048,6,8c6.878,4.998,16.527,7.799,23,13c5.739,4.611,19.052,18.394,19,21c-0.052,2.579-12.974,16.359-15,19
		c-28.735,37.451-48.23,81.516-61,132c-1.013,4.005-2.345,19.887-6,21c-3.127,0.952-19.65-15.13-23-17
		c-7.255-4.051-16.348-8.502-22-11c-10.021-4.429-23.38-2.993-34-7c-3.476-1.312-5.621-5.063-9-6c-24.783-6.878-45.015,1.504-62,3
		c-15.185,1.338-14.221,3.622-24,7c-9.437,3.26-16.147,5.057-24,11c-7.492,5.671-27.937,33.22-36,33
		c-7.062-0.192-23.867-29.441-33-39c-16.523-17.292-37.109-25.673-63-33c-10.474-2.964-30.326-5.543-42-4
		C61.688,1426.8,31.494,1433.132,0,1452z"/>
	<path fill="#FFFFFF" d="M854,1278c8.064,0.66,8.044,1.691,9,16c0.841,12.584-0.676,35.478-1,48c-1.121,43.384,8.084,93.842,5,143
		c-3.502,55.822,3.381,110.144,1,166c-0.417,9.785,6.762,34.723,3,41c-2.4,4.006-29.203,5.991-32,4c-2.908-2.07-2.031-8.933-4-17
		c-6.805-27.879-10.711-60.57-17-89c-7.268-32.854-15.323-72.159-22-99c-15.69-63.076-14.26-107.591-30-171
		c-1.134-4.568-10.1-27.665-8-31c2.26-3.589,35.105-4.731,46-6C825.104,1280.543,838.475,1276.729,854,1278z"/>
	<path fill="#D2A2BD" d="M1460,1336c0,4,0,8,0,12c-8.631,23.317-22.137,28.84-47,39c-4.641,1.896-10.66,8.301-15,9
		c-16.564,2.67-46.367-0.706-62-3c-11.985-1.759-32.901,3.529-34,9c-1.201,5.986,31.422,27.419,41,32c2.537,1.213,6.211-0.079,9,1
		c13.271,5.136,24.603,14.446,38,19c21.786,7.405,46.629,8.599,70,15c0,1.666,0,3.333,0,5c-45.829-5.646-82.104-17.219-119-35
		c-10.563-5.091-33.809-18.604-41-27c-24.447-28.54,47.4-20.598,58-20c14.554,0.82,24.928-1.746,39-4
		C1428.314,1382.985,1452.473,1363.834,1460,1336z"/>
	<path fill="#D2A2BD" d="M1174,1343c5.74-1.525,15.834,10.337,21,15c12.568,11.346,36.32,20.424,43,29
		c13.055,16.762,2.465,42.521-20,39c-21.38-3.352-36.148-38.95-44-57C1169.867,1359.499,1163.58,1345.77,1174,1343z M1193,1398
		c6.696,10.741,32.2,34.574,44,17c9.865-14.692-9.254-29.853-18-36c-6.073-4.269-35.313-25.031-38-23
		C1177.02,1359.009,1187.987,1389.959,1193,1398z"/>
	<path fill="#FFFFFF" d="M1460,1348c0,40.334,0,80.666,0,121c-23.371-6.401-48.214-7.595-70-15c-13.397-4.554-24.729-13.864-38-19
		c-2.789-1.079-6.463,0.213-9-1c-9.578-4.581-42.201-26.014-41-32c1.099-5.471,22.015-10.759,34-9c15.633,2.294,45.436,5.67,62,3
		c4.34-0.699,10.359-7.104,15-9C1437.863,1376.84,1451.369,1371.317,1460,1348z"/>
	<path fill="#FFFFFF" d="M1181,1356c2.688-2.031,31.927,18.731,38,23c8.746,6.147,27.865,21.308,18,36
		c-11.8,17.574-37.304-6.259-44-17C1187.987,1389.959,1177.02,1359.009,1181,1356z"/>
	<path fill="#FFFFFF" d="M0,1740c0-92.999,0-186.001,0-279c19.98-13.162,30.868-15.402,54-21c5.289-1.28,9.536-5.193,14-6
		c50.348-9.1,108.255,7.887,131,31c12.244,12.442,25.759,41.928,35,43c12.071,1.4,31.06-28.455,43-37c3.941-2.82,14.598-9.011,17-10
		c41.203-16.975,112.118-3.066,144,11c6.46,2.851,28.402,16.056,30,23c1.668,7.249-4.904,33.018-6,43
		c-0.838,7.631,0.329,20.093,1,29c1.899,25.211,4.727,61.42,11,82c6.421,21.063,23.514,42.853,10,62
		c-24.977,35.388-67.283,70.798-101,98c-49.446,39.892-99.558,72.063-148,116c-5.805,5.265-27.303,33.99-35,34
		c-6.738,0.009-23.647-28.653-30-37C121.712,1858.55,52.133,1799.128,0,1740z"/>
	<path fill="#FFFFFF" d="M1460,1671c0,169.666,0,339.335,0,509c-486.645,0-973.382,0-1460,0c0-20,0-40,0-60
		c27.787,15.589,55.647,25.58,89,34c7.589,1.916,14.68,6.277,21,8c20.203,5.508,47.491,5.142,72,7c59.782,4.533,103.915,2.088,153-8
		c16.795-3.451,34.623-10.037,50-15c62.686-20.229,116.456-57.553,162-95c31.199-25.652,57.104-56.463,82-88
		c7.961-10.085,17.304-23.739,23-34c5.301-9.549,12.189-34.722,20-37c9.117-2.659,30.143,13.181,38,16
		c7.809,2.802,18.644,3.353,28,6c17.034,4.82,37.142,10.829,54,13c45.143,5.813,113.416-1.327,154-15
		c102.715-34.604,183.146-95.84,228-186c3.473-6.98,9.426-32.75,17-36c4.911-2.107,9.625,3.856,17,5
		C1290.929,1707.854,1389.746,1693.232,1460,1671z"/>
	<path fill="#DF0024" d="M0,2112c0-120.332,0-240.668,0-361c43.258,48.943,91.781,89.813,134,140c10.329,12.278,22.438,23.902,31,36
		c6.096,8.613,27.192,42.303,33,43c5.72,0.687,17.043-14.662,23-20c19.664-17.621,35.457-30.198,56-48
		c12.384-10.73,23.254-24.437,34-32c2.17-1.527,5.609-0.622,8-2c17.601-10.147,33.544-28.313,52-42c1.775-1.316,5.245-0.724,7-2
		c23.745-17.265,42.944-39.619,62-58c17.433-16.815,36.086-31.914,49-49c3.591-4.751,2.989-10.859,7-11c5.936-0.208,7,13.169,9,17
		c11.473,21.984,27.231,42.887,41,60c30.479,37.884,64.756,72.484,105,94c2.892,1.546,4.628,0.148,7,2
		c12.96,10.116-13.28,43.052-19,51c-11.699,16.257-21.216,37.625-36,56c-10.432,12.966-27.807,24.128-38,37
		c-7.49,9.459-13.689,16.957-24,26c-8.677,7.61-19.236,14.127-28,19c-15.157,8.428-29.398,24-44,32
		c-18.33,10.042-42.451,18.172-60,26c-3.839,1.713-5.953,5.675-10,7c-11.59,3.795-21.545,4.527-33,8c-4.447,1.348-7.11,5.967-11,7
		c-5.509,1.464-12.377-0.759-18,1c-3.818,1.194-6.306,5.197-10,6c-7.853,1.706-18.117-1.466-27,1c-5.434,1.508-8.865,5.412-14,6
		c-11.854,1.358-24.09-2.713-36-1c-3.818,0.549-7.139,3.531-11,4c-38.214,4.645-91.434-5.04-120-14c-13.617-4.271-30.037-1.18-43-7
		c-12.637-5.673-20.296-6.564-31-10c-4.836-1.552-7.502-6.914-12-9C21.816,2119.813,8.726,2119.273,0,2112z"/>
	<path fill="#FFFFFF" d="M900,1739c10.575,1.337,9.333,24.19,12,44c1.639,12.173,7.822,42.724,5,47c-4.562,6.912-41.039,6.119-49,7
		c-7.777,0.86-42.18,9.654-47,6c-6.197-4.697-4.816-37.009-6-47c-0.883-7.452-9.85-41.02-4-47c3.068-3.138,31.444-3.559,44-5
		C873.17,1741.914,887.508,1737.421,900,1739z"/>
	<path fill="#39AA3F" d="M0,2180c486.618,0,973.355,0,1460,0c0,41.867,0,100.551,0,150c0,9.665,4.037,45.962,0,50
		c-1.732,1.732-35.914,0-46,0c-455.922,0-911.607,0-1369,0c-10.346,0-43.612,1.388-45,0c-3.71-3.71,0-40.89,0-50
		C0,2280.205,0,2226.063,0,2180z M710,2244c-5.649-12.281,7.541-35.963,0-45c-0.437-0.523-24.928-3.682-28,0
		c-3.506,4.202,0,29.204,0,35c0,26.228,0,45.655,0,71c0,8.709-2.191,33.373,0,36c0.665,0.797,24.257,4.485,28,0
		c4.873-5.84,0-35.079,0-39c0-15.764,0-26.945,0-40c15.037-20.172,11,21.057,11,35c0,12.198-3.909,39.314,0,44
		c1.28,1.534,24.452,3.548,27,1c2.392-2.392,0-32.47,0-45c0-12.477,2.015-33.612,0-45C744.703,2233.364,722.385,2230.042,710,2244z
		 M901,2218c0,4.346-4.645,6.355,0,11c0.31,0.31,23.486,3.514,27,0c0.66-0.66,0-7.414,0-12c0-5.524,2.938-10.062,0-13
		c-2.229-2.229-26.492,0.391-27,1C899.908,2206.311,901,2213.799,901,2218z M972,2237c-6.146-7.076,5.891-27.109,0-33
		c0.7,0.7-24.576-2.424-27,0c-4.381,4.381,4.516,27.382,0,33c-0.885,1.101-8.156,1.313-8,1c-2.211,4.432-1.837,14.362,0,18
		c-0.158-0.313,6.917-0.343,8,1c2.899,3.596,0,17.381,0,31c0,23.037-1.64,44.757,11,52c5.424,3.107,26.576,6.901,31,1
		c1.519-2.025,0.152-20.832,0-21c-1.874-2.069-9.873,2.918-14-2c-2.928-3.489-1-20.91-1-30c0-6.993-3.339-28.157,0-32
		c1.678-1.932,10.362,2.07,13-1c-0.074,0.086,2.977-12.947-1-17C981.064,2235.009,973.725,2238.986,972,2237z M499,2235
		c-10.253-0.393-16.954,11.544-22,11c-4.486-0.483-8.289-10.596-15-11c-9.496-0.572-16.459,8.482-20,8c1.286,0.176-0.731-4.436-2-5
		c-4.133-1.84-25.181,0.182-25,0c-4.058,4.059,0,20.943,0,26c0,10.16,0,13.254,0,26c0,6.828-3.191,48.809,0,52
		c2.077,2.076,25.472,0.44,26,0c3.717-3.102,1-30.94,1-40c0-19.709-2.519-35.021,0-41c0.398-0.946,6.781-6.291,9-5
		c6.049,3.521,2,33.855,2,42c0,9.161-4.322,39.678,0,44c1.119,1.119,24.5,1.252,26,0c5.54-4.623,1-30.502,1-47
		c0-7.575-2.547-45.95,9-39c5.629,3.389,2,30.432,2,42c0,8.029-3.523,40.477,0,44c1.352,1.352,24.026,1.646,26,0
		c3.518-2.936,1-32.76,1-42c0-20.234,0.579-36.264-1-45C514.849,2243.1,510.017,2235.422,499,2235z M542,2241
		c-2.909,2.087-20.077,23.923-12,32c1.59,1.59,24.124,0.701,25,0c6.855-5.486-4.113-19.076,8-17c4.478,0.768,8.02,13.205,5,19
		c-1.117,2.145-14.891,6.838-17,8c-5.314,2.929-11.68,6.695-15,11c-17.526,22.719,3.759,70.242,30,44c9.438-9.438,1.632-0.086,8,4
		c0.939,0.603,6.966,0,12,0c17.708,0,9.781-8.1,9-19c-3.163-44.159,8.313-87.178-31-88C558.632,2234.888,547.923,2236.75,542,2241z
		 M626,2237c-21.063,7.87-24.133,55.292-18,85c6.069,29.398,52.886,27.195,62,4c1.465-3.728,4.354-24.201,1-27
		c-0.323-0.27-24.019-1.98-26,0c-3.658,3.658,5.735,28.685-7,24c-5.603-2.061-5.762-67.137,2-67c10.889,0.191-0.539,18.461,5,24
		c1.202,1.201,25.457,0.855,27-1c9.212-11.082-9.012-37.247-14-40c-4.386-2.421-11.972-4.105-19-4
		C634.657,2235.065,629.837,2235.566,626,2237z M811,2240c-0.546-3.443-26.99-2.01-27-2c-3.893,3.893,0,19.58,0,26
		c0,6.85,0,14.397,0,26c0,9.663-4.372,47.518,1,52c2.812,2.346,26.191-0.191,26,0c1.83-1.83,0-15.424,0-20
		c0-15.646-3.127-53.578,0-61c0.115-0.274,5.376-7.086,9-5c5.035,2.898,2,29.692,2,42c0,6.448-3.004,40.996,0,44
		c1.518,1.518,24.203,2.797,27,0c3.865-3.865,0-26.656,0-40c0-17.676-3.559-32.553,0-41c0.094-0.222,5.248-7.16,9-5
		c5.311,3.057,2,33.551,2,42c0,4.495-3.738,40.262,0,44c1.085,1.085,24.451,1.292,26,0c2.15-1.795,1-16.825,1-21
		c0-31.352,8.123-84.116-18-86c-12.648-0.912-17.459,11.771-23,11c-4.869-0.677-3.117-10.832-16-11
		C820.455,2234.876,812.113,2247.017,811,2240z M928,2289c0-9.926,3.789-47.211,0-51c-1.672-1.672-26.51-0.49-27,0
		c-4.223,4.223,0,40.125,0,51c0,12.928-5.045,45.954,0,52c2.127,2.549,25.713,1.544,27,0C932.223,2335.933,928,2304.843,928,2289z
		 M1054,2289c-0.27,6.247-32.996,20.144-35,25c-0.007,0.017-2.586,20.414,0,23c1.742,1.742,13.1-9.069,13-9
		c12.028-8.396,53.351-23.531,41-51c-2.008-4.466-19.682-12.877-27-18c-3.152-2.207-14.147-10.723-19-14
		c-10.834-7.316-11.969,8.952-7,19C1023.193,2270.459,1054.218,2283.947,1054,2289z M415,2363c1.619,2.272,26.642,1,35,1
		c170.977,0,336.706,0,507,0c10.739,0,30.759,4.069,30-7c-0.676-9.857-21.02-6-30-6c-133.421,0.007-266.398-0.007-396,0
		c-48.541,0.003-97.268-3.513-145,0c-1.129,0.083-0.488,0.373-1,1C412.936,2354.528,415.296,2363.415,415,2363z"/>
	<path fill="#FFFFFF" d="M901,2205c0.508-0.609,24.771-3.229,27-1c2.938,2.938,0,7.476,0,13c0,4.586,0.66,11.34,0,12
		c-3.514,3.514-26.69,0.31-27,0c-4.645-4.645,0-6.654,0-11C901,2213.799,899.908,2206.311,901,2205z"/>
	<path fill="#FFFFFF" d="M415,2352c0.512-0.627-0.129-0.917,1-1c47.732-3.513,96.459,0.003,145,0c129.602-0.007,262.579,0.007,396,0
		c8.98,0,29.324-3.857,30,6c0.759,11.069-19.261,7-30,7c-170.294,0-336.023,0-507,0c-8.358,0-33.381,1.272-35-1
		C415.296,2363.415,412.936,2354.528,415,2352z"/>
	<path fill="#8D4B95" d="M1460,709c0,82,0,164,0,246c-68.352-37.268-169.926-43.002-243-8c-27.771,13.302-65.924,47.355-78,72
		c-5.283,10.782-10.785,23.525-13,32c-9.07,34.703,5.068,80.033,13,118c5.567,26.65,9.466,68.357,20,93
		c1.96,4.586,8.447,9.593,12,16c5.811,10.479,20.1,39.725,33,42c10.09,1.779,33.957-9.061,52-14c30.246-8.279,67.063-22.73,101-25
		c46.775-3.128,91.918-3.633,103,40c0,5,0,10,0,15c-7.527,27.834-31.686,46.985-63,52c-14.072,2.254-24.446,4.82-39,4
		c-10.6-0.598-82.447-8.54-58,20c7.191,8.396,30.437,21.909,41,27c36.896,17.781,73.171,29.354,119,35c0,63,0,126,0,189
		c-44.096,17.346-114.203,33.546-176,32c-5.968-0.149-12.165-3.608-18-4c-18.943-1.272-36.752,1.18-54-2
		c-10.001-1.844-20.727-10.551-28,3c57.184-111.314,21.317-300.219-54-370c14.008,7.818,5.375-17.657,3-29
		c-25.611-122.323-49.123-240.149-76-365c-2.606-12.106-5.859-48.479-15-52c-7.595-2.925-22.594,3.51-30,5
		c-11.086,2.229-18.386,3.788-29,6c-13.863,2.889-49.709,5.28-53,17c-2.082,7.413,4.507,27.549,7,39
		c13.563,62.292,26.075,125.266,39,186c7.496,35.222,7.978,77.486,33,94c-55.272-37.262-150.587-54.313-235-37
		c13.361-4.552,7.563-28.05,8-42c1.252-40.003,14.928-87.062,26-122c20.928-66.037,58.063-121.073,99-171
		c29.445-35.911,64.471-60.851,101-86c67.796-46.676,157.775-81.291,261-84c22.424-0.589,40.846-2.75,63-2
		c6.302,0.213,12.506,4.568,20,5c13.81,0.795,21.536,0.994,38,4c4.14,0.756,7.682,4.366,12,5c3.729,0.547,8.395-1.657,12-1
		c5.326,0.97,18.606,9.403,28,12C1450.808,706.435,1455.813,702.324,1460,709z M1181,909c-3.439,7.708-17.677,32.343-13,37
		c5.925,5.9,29.029-17.079,32-19c38.474-24.879,106.888-33.921,124-76c13.586-33.406-9.02-61.15-44-56
		C1227.67,802.705,1200.91,864.368,1181,909z M1095,942c1.385,11.855,7.521,48.275,13,49c11.766,1.557,11.896-19.539,14-27
		c6.914-24.524,40.428-43.322,43-72c2.005-22.353-11.578-36-28-36C1099.649,856,1090.777,905.854,1095,942z M1174,1369
		c7.852,18.05,22.62,53.648,44,57c22.465,3.521,33.055-22.238,20-39c-6.68-8.576-30.432-17.654-43-29
		c-5.166-4.663-15.26-16.525-21-15C1163.58,1345.77,1169.867,1359.499,1174,1369z"/>
	<path fill="#D2A2BD" d="M0,2114c76.302,41.679,185.112,63.046,290,50c59.654-7.42,111.833-30.166,157-52
		c41.288-19.959,82.86-46.344,116-79c30.283-29.842,55.984-68.133,77-99c5.896-8.659,14.52-18.488,20-30
		c4.294-9.02,2.047-21.349,20-17c2.738,0.663,5.242,4.673,8,6c8.91,4.287,30.772,13.352,43,16c28.07,6.08,52.576,11.461,88,13
		c179.26,7.789,307.892-92.67,365-230c7.273-13.551,17.999-4.844,28-3c17.248,3.18,35.057,0.728,54,2c5.835,0.392,12.032,3.851,18,4
		c61.797,1.546,131.904-14.654,176-32c0,2.667,0,5.333,0,8c-70.254,22.232-169.071,36.854-252,24c-7.375-1.144-12.089-7.107-17-5
		c-7.574,3.25-13.527,29.02-17,36c-44.854,90.16-125.285,151.396-228,186c-40.584,13.673-108.857,20.813-154,15
		c-16.858-2.171-36.966-8.18-54-13c-9.356-2.647-20.191-3.198-28-6c-7.857-2.819-28.883-18.659-38-16
		c-7.811,2.278-14.699,27.451-20,37c-5.696,10.261-15.039,23.915-23,34c-24.896,31.537-50.801,62.348-82,88
		c-45.544,37.447-99.314,74.771-162,95c-15.377,4.963-33.205,11.549-50,15c-49.085,10.088-93.218,12.533-153,8
		c-24.509-1.858-51.797-1.492-72-7c-6.32-1.723-13.411-6.084-21-8c-33.353-8.42-61.213-18.411-89-34C0,2118,0,2116,0,2114z"/>
	<path fill="#D2A2BD" d="M710,2262c0,13.055,0,24.236,0,40c0,3.921,4.873,33.16,0,39c-3.743,4.485-27.335,0.797-28,0
		c-2.191-2.627,0-27.291,0-36c0-25.345,0-44.772,0-71c0-5.796-3.506-30.798,0-35c3.072-3.682,27.563-0.523,28,0
		c7.541,9.037-5.649,32.719,0,45c-7.451-10.405,6.487-35.015-1-44c0.529,0.635-22.533-4.467-26-1c-2.248,2.248,0,32.482,0,36
		c0,25.207,0,44.037,0,70c0,8.057-2.061,32.527,0,35c0.825,0.99,23.568,3.432,26,1c3.145-3.145,0-36.091,0-39
		C709,2284.119,708.211,2271.418,710,2262z"/>
	<path fill="#FFFFFF" d="M517,2255c1.579,8.736,1,24.766,1,45c0,9.24,2.518,39.064-1,42c-1.974,1.646-24.648,1.352-26,0
		c-3.523-3.523,0-35.971,0-44c0-11.568,3.629-38.611-2-42c-11.547-6.95-9,31.425-9,39c0,16.498,4.54,42.377-1,47
		c-1.5,1.252-24.881,1.119-26,0c-4.322-4.322,0-34.839,0-44c0-8.145,4.049-38.479-2-42c-2.219-1.291-8.602,4.054-9,5
		c-2.519,5.979,0,21.291,0,41c0,9.06,2.717,36.898-1,40c-0.528,0.44-23.923,2.076-26,0c-3.191-3.191,0-45.172,0-52
		c0-12.746,0-15.84,0-26c0-5.057-4.058-21.941,0-26c-0.181,0.182,20.867-1.84,25,0c1.269,0.564,3.286,5.176,2,5
		c3.541,0.482,10.504-8.572,20-8c6.711,0.404,10.514,10.517,15,11c5.046,0.544,11.747-11.393,22-11
		C510.017,2235.422,514.849,2243.1,517,2255z"/>
	<path fill="#FFFFFF" d="M1020,2264c-4.969-10.048-3.834-26.316,7-19c4.853,3.277,15.848,11.793,19,14
		c7.318,5.123,24.992,13.534,27,18c12.351,27.469-28.972,42.604-41,51c0.1-0.069-11.258,10.742-13,9c-2.586-2.586-0.007-22.983,0-23
		c2.004-4.856,34.73-18.753,35-25C1054.218,2283.947,1023.193,2270.459,1020,2264z"/>
	<path fill="#FFFFFF" d="M0,32c486.645,0,973.382,0,1460,0c0,223,0,446.002,0,669c-62.5-21.835-132.178-29.125-203-28
		c-29.485,0.469-61.536,9.975-91,16c-85.343,17.453-153.988,58.781-211,107c-39.075,33.049-71.725,72.678-98,114
		c-26.775,42.108-53.32,94.381-66,146c-2.975,12.109-3.171,25.655-6,39c-4.897,23.101-4.475,37.477-8,64
		c-0.558,4.196,0.394,20.01-2,23c-4.563,5.699-23.047,3.679-28,5c-65.502,17.472-126.973,55.37-173,99
		c-4.863,4.61-15.195,18.688-20,18c-2.438-0.349-13.073-13.878-18-18c-18.169-15.202-42.76-33.231-63-43
		c-29.897-14.43-64.331-33.621-98-44c-59.866-18.455-153.524-28.708-230-19c-26.056,3.308-60.033,13.936-86,22
		c-20.52,6.373-37.154,17.013-59,24C0,828.008,0,429.995,0,32z M726,103c-20.994,10.38-52.033,33.058-76,48
		c-7.417,4.624-24.28,11.155-25,16c-0.854,5.75,15.062,23.557,19,30c38.98,63.776,74.577,121.37,113,183
		c3.699,5.934,12.947,29.932,19,31c1.489,0.263,8.979-6.129,12-8c23.863-14.772,40.434-24.616,64-39c5.111-3.12,24.175-12.734,25-16
		c0.823-3.257-7.335-12.726-10-17c-2.556-4.099-6.033-15.843-10-17c-4.761-1.389-20.679,12.087-27,16
		c-2.089,1.293-23.488,17.125-27,16c-4.691-1.502-19.67-34.288-22-38c-3.387-5.395-25.021-31.818-23-38
		c2.694-8.244,34.807-14.689,36-23c0.455-3.174-19.327-32.657-22-33c-6.148-0.789-29.325,23.584-36,22
		c-3.493-0.829-19.646-30.795-21-33c-3.772-6.146-21.333-29.392-20-34c1.334-4.611,20.146-11.417,26-15c4.867-2.979,8.2-5.062,13-8
		c14.928-9.137,12.166-11.658,4-25c-4.417-7.216-7.092-15.513-11-17C726.694,103.884,727.061,102.476,726,103z M573,198
		c-18.949,11.73-35.661,22.16-53,33c-5.854,3.66-26.112,12.82-27,16c-0.957,3.428,18.739,33.622,20,34
		c5.33,1.598,23.317-13.517,29-17c2.185-1.339,26.202-18.652,29-17c3.657,2.16,8.404,41.688,11,54
		c11.803,55.979,22.334,113.001,34,163c1.109,4.753,17.613,31.507,21,32c3.417,0.498,10.754-6.016,14-8
		c23.715-14.495,46.338-29.332,70-44c7.334-4.547,27.248-12.853,28-18c0.557-3.811-9.771-13.997-11-16
		c-2.254-3.671-6.976-16.442-11-17c-1.761-0.244-12.018,8.169-15,10c-15.156,9.303-26.224,16.804-40,25
		c-14.123,8.402-10.542-6.483-14-23c-5.894-28.149-13.166-56.907-18-81c-9.16-45.653-12.749-112.763-39-137
		C594.369,180.877,582.151,192.335,573,198z M444,278c-23.982,14.952-40.812,24.05-62,37c-6.338,3.874-29.316,15.701-30,20
		c-0.339,2.131,8.465,13.858,11,18c1.582,2.584,8.131,17.126,11,18c7.697,2.344,29.672-24.052,37-22
		c1.869,0.523,12.823,20.876,16,26c33.397,53.873,62.728,102.328,96,156c3.531,5.696,12.851,25.37,16,26
		c2.311,0.462,18.338-11.455,24-15c5.51-3.45,24.042-11.896,25-15c0.906-2.934-11.534-20.337-15-26
		c-33.452-54.654-63.135-102.229-96-156c-3.875-6.34-16.845-21.717-16-26c1.74-8.819,32.118-14.624,34-22
		c0.979-3.835-16.45-29.729-20-33C468.163,257.701,452.341,272.8,444,278z M1088,340c-3.379-6.833-11.943-29.196-16-30
		c-2.514-0.498-29.745,17.946-30,19c-1.193,4.931,16.298,22.519,21,29c16.074,22.156,27.35,38.189,42,58
		c4.856,6.566,15.301,28.103,22,29c16.526,2.213,2.462-20.092,1-23c-10-19.89-16.803-33.381-25-51
		C1098.053,360.364,1094.123,352.382,1088,340z M346,338c-20.693,9.714-52.24,32.457-76,47c-6.229,3.813-24.205,11.118-25,16
		c-0.556,3.411,14.903,23.456,19,30c39.314,62.793,75.61,121.738,113,183c4.139,6.781,13.715,29.926,19,31
		c4.377,0.89,19.777-12.762,25-16c19.298-11.964,31.241-18.149,52-31c5.532-3.425,24.535-13.776,25-17
		c0.209-1.449-18.903-32.507-22-33c-9.071-1.443-42.751,34.313-52,32c-4.982-1.246-9.087-15.932-11-19
		c-5.417-8.689-7.493-10.658-12-18c-3.476-5.663-24.026-33.783-23-38c1.701-6.99,35.321-16.722,37-22
		c1.122-3.527-20.704-35.755-22-36c-7.855-1.486-28.956,25.151-37,23c-3.221-0.861-8.298-13.22-10-16
		c-4.898-8.002-6.529-11.432-10-17c-3.701-5.937-21.623-28.586-20-34c1.233-4.113,23.288-14.318,26-16
		c3.326-2.062,25.044-11.459,26-16c0.366-1.736-15.981-29.764-20-32C346.364,338.09,347.746,337.181,346,338z M1019,405
		c-4.17,6.403-3.039,18.9-8,11c-4.311-6.864-18.054,5.729-25,10c-3.063,1.883-6.533-0.276-8,4c-1.32,3.851,12.098,20.6,18,30
		c14.482,23.066,31.738,51.699,46,75c0.387,0.631,5.539,14.34,10,15c3.633,0.538,28.63-17.25,29-20c0.628-4.666-11.271-18.567-14-23
		c-10.152-16.493-42.021-59.149-42-70c0.052-26.498,21.015,5.526,25,12c12.125,19.698,18.571,31.668,30,50
		c-0.23-0.37,13.115,23.437,16,24c3.326,0.649,9.873-5.804,15-9c2.337-1.457,14.595-8.413,15-10c1.001-3.921-11.34-19.087-15-25
		c-14.776-23.87-30.768-56.868-46-75c-5.471-6.512-18.372-13.999-29-12C1029.789,393.168,1021.965,400.448,1019,405z M118,502
		c-6.462,58.202,39.081,86.367,83,94c19.676,3.419,45.03,5.826,64,14c14.526,6.26,40.056,21.34,36,43
		c-4.636,24.757-34.037,5.355-41-3c-3.833-4.599-12.495-23.754-17-20c-7.097,5.914-41.836,33.814-42,39
		c-0.188,5.947,19.257,21.91,26,27c46.474,35.08,120.265,6.986,126-49c5.475-53.448-45.552-86.161-88-96
		c-33.492-7.763-99.866-7.895-95-52c2.315-20.982,26.394-13.244,35-3c2.971,3.536,9.104,18.4,13,19c3.12,0.48,9.368-8.635,11-10
		c6.908-5.78,34.734-23.079,35-30c0.101-2.627-10.297-15.399-14-19c-13.013-12.652-38.522-23.112-60-21
		C154.31,438.509,121.687,468.795,118,502z M1125,464c-0.933,3.087,16.66,28.893,17,29c2.557,0.811,29.517-15.319,30-17
		c1.496-5.203-17.574-28.839-19-29C1151.449,446.824,1125.469,462.448,1125,464z M906,479c-9.917,24.625,8.334,45.548,19,63
		c9.028,14.771,16.469,30.648,25,39c23.681,23.179,75.682,5.716,74-35c-0.248-6.013-6.899-29.093-14-31
		c-3.381-0.908-29.656,16.72-30,19c-0.896,5.943,22.588,26.072,5,28c-8.354,0.916-12.788-13.026-14-15
		c-0.611-0.995-11.637-16.431-11-19c0.977-3.939,18.078-11.178,21-13c5.278-3.291,20.393-9.939,21-14
		c0.264-1.763-10.318-16.243-14-22c-9.545-14.927-21.809-30.846-46-27C925.847,454.568,910.457,467.934,906,479z M772,496
		c-0.486,2.72,10.762,16.385,13,20c23.833,38.5,39.727,64.03,63,102c4.523,7.379,19.832,39.481,25,41
		c3.721,1.094,30.584-16.434,31-18c1.123-4.226-10.428-17.147-14-23c-9.707-15.905-41.769-60.988-42-71c-0.092-4,1.813-11.116,8-11
		c7.979,0.149,13.254,18.564,16,23c11.937,19.282,19.418,30.291,31,49c2.619,4.23,11.195,23.289,16,24
		c2.189,0.324,29.613-17.199,30-19c0.42-1.957-12-20.187-15-25c-14.826-23.781-30.243-54.705-46-74
		c-8.643-10.583-27.003-17.321-39-8c-6.098,4.737-11.803,22.928-14,23c-1.193,0.039-11.344-20.026-15-26
		c-5.594-9.139-13.09-25.336-18-26C801.432,476.923,772.387,493.84,772,496z M737,577c-20.839,22.28-1.963,50.941,11,72
		c8.765,14.239,18.354,34.159,27,42c26.492,24.027,72.799-0.1,73-34c0.063-10.724-12.085-37.146-18-38
		c-1.93-0.278-10.346,6.764-14,9c-2.061,1.261-14.262,6.7-15,9c-0.836,2.601,24.523,33.871,7,34c-8.75,0.064-24.379-33.724-27-38
		c-4.19-6.836-26.929-35.392-18-41c12.187-7.654,19.189,21.899,23,23c1.025,0.296,30.303-15.43,31-19
		c0.329-1.685-9.963-16.295-13-20c-8.376-10.215-23.018-16.47-33-16C758.541,560.587,742.637,570.973,737,577z M643,584
		c-0.566,3.648,7.202,11.099,9,14c0.882,1.423,6.982,13.56,10,14c3.389,0.495,29.788-18.376,30-20c0.46-3.521-17.872-26.841-19-27
		C670.808,564.691,643.365,581.648,643,584z M695,606c0.284-0.176-25.91,11.94-27,16c-1.393,5.188,14.237,23.853,18,30
		c14.095,23.028,22.299,37.679,36,60c4.188,6.823,15.271,28.384,20,29c1.56,0.203,28.715-16.992,29-18
		c1.045-3.694-11.771-21.433-17-30c-18.035-29.55-38.467-62.706-54-88c-0.366-0.596-2.083-0.878-3-1
		C695.694,603.827,695.688,605.572,695,606z M501,663c-7.865,4.875-32.823,14.258-34,22c-0.48,3.158,12.192,21.661,14,22
		c5.678,1.063,32.452-26.386,38-23c0.317,0.193,3.229,14.294,4,18c3.99,19.191,7.654,39.279,11,55c4.992,23.458,7.256,51.304,15,73
		c1.135,3.18,11.095,20.464,13,21c5.668,1.597,30.079-18.151,38-23c5.874-3.595,36.676-18.016,38-23c0.241-0.909-9.5-21.965-13-23
		c-9.174-2.714-38.351,30.981-45,25c-1.598-1.438-5.009-26.708-7-36c-8.086-37.733-14.7-76.71-22-108
		c-0.778-3.333-12.865-21.75-14-22C530.665,639.604,513.419,655.301,501,663z M596,701c6.645,18.977,28.686,53.062,41,68
		c25.044,30.382,82.192,6.166,76-38c-0.534-3.812-11.696-24.603-13-25c-3.459-1.053-31.007,19.038-31,19
		c-0.371,1.956,21.807,25.973,6,28c-5.831,0.748-25.966-27.877-25-33c1-5.304,16.571-10.901,20-13c2.745-1.68,19.425-7.744,21-13
		c1.451-4.841-15.06-28.056-19-33c-8.977-11.263-21.932-19.84-38-18C610.549,645.685,585.169,670.069,596,701z M414,779
		c-4.221,6.936-2.017,16.662-7,9c-2.455-3.773-31.457,9.838-33,15c-1.116,3.733,13.225,22.22,18,30c15.374,25.047,22.32,37.65,36,60
		c3.165,5.171,13.573,28.176,20,29c4.323,0.555,28.673-17.051,29-19c0.689-4.108-11.352-18.722-14-23
		c-5.008-8.089-10.01-14.939-15-23c-10.816-17.472-27.273-36.267-27-48c0.585-25.092,20.968,5.532,25,12
		c11.484,18.42,20.29,33.337,30,49c1.785,2.879,10.956,23.948,15,25c3.62,0.941,9.302-5.468,15-9c-0.078,0.048,15.447-7.141,16-9
		c0.866-2.913-11.137-17.847-15-24c-6.05-9.636-10.764-18.099-15-25c-13.094-21.332-27.471-66.219-58-63
		C425.169,765.931,417.362,773.476,414,779z M301,795c-0.325,2.06,16.99,27.743,19,28c0.963,0.123,28.441-16.325,29-20
		c0.181-1.19-11.438-23.444-16-26C330.769,775.75,301.695,790.6,301,795z M325,834c-0.414,2.347,7.415,11.418,9,14
		c17.132,27.911,29.572,47.65,46,74c2.284,3.664,13.559,28.651,18,30c2.19,0.666,30.152-15.029,31-18
		c0.98-3.436-11.735-21.423-17-30c-18.326-29.856-36.114-61.734-55-88c-0.674-0.937-0.508-0.795-2-1
		C354.331,814.908,325.757,829.712,325,834z M164,870c-1.636,5.482,13.084,23.878,15,27c5.083,8.282,17.718,23.998,15,26
		c-4.249,3.13-11.498-2.465-18-1c-10.278,2.315-18.924,15.243-19,28c-0.12,20.221,16.247,37.042,26,53
		c9.019,14.756,17.498,31.07,25,40c13.916,16.564,41.785,12.561,49-5c6.657-16.203-0.256-4.143,9-3c3.553,0.438,28.771-18.404,29-20
		c0.777-5.417-20.379-32.546-25-40c-25.412-40.991-50.237-85.3-75-121c-0.074-0.106,0.104-0.958,0-1
		C192.171,851.855,164.451,868.487,164,870z M251,895c-0.323,17.631,10.372,31.199,19,45c9.256,14.805,15.731,28.938,25,40
		c23.072,27.538,72.173,8.229,76-24c1.297-10.92-6.502-36.983-13-39c-2.315-0.719-30.597,16.528-31,18
		c-1.147,4.182,21.838,25.776,6,29c-5.156,1.05-27.385-29.002-26-34c1.086-3.918,18.279-10.313,21-12c4.173-2.587,20.389-11,21-13
		c1.326-4.341-10.385-17.387-14-23c-9.813-15.24-20.034-31.16-44-28C272.873,856.39,251.439,871.059,251,895z"/>
	<path fill="#FFFFFF" d="M945,482c10.413,1.217,22.125,34.24,4,29C946.42,510.254,927.559,479.962,945,482z"/>
	<path fill="#D2A2BD" d="M774,1186c-71.799,14.243-130.01,43.663-179,86c-7.833,6.77-31.675,36.628-41,36
		c-5.305-0.357-14.592-13.748-20-18c-24.893-19.572-54.991-40.705-82-54c-97.748-48.118-238.51-74.364-366-38
		c-29.15,8.314-56.214,22.909-86,34c0-2,0-4,0-6c21.846-6.987,38.48-17.627,59-24c25.967-8.064,59.944-18.692,86-22
		c76.476-9.708,170.134,0.545,230,19c33.669,10.379,68.103,29.57,98,44c20.24,9.769,44.831,27.798,63,43
		c4.927,4.122,15.562,17.651,18,18c4.805,0.688,15.137-13.39,20-18c46.027-43.63,107.498-81.528,173-99
		c4.953-1.321,23.438,0.699,28-5c2.394-2.99,1.442-18.804,2-23c3.525-26.523,3.103-40.899,8-64c2.829-13.345,3.025-26.891,6-39
		c12.68-51.619,39.225-103.892,66-146c26.275-41.322,58.925-80.951,98-114c57.012-48.219,125.657-89.547,211-107
		c29.464-6.025,61.515-15.531,91-16c70.822-1.125,140.5,6.165,203,28c0,2.667,0,5.333,0,8c-4.188-6.676-9.192-2.565-18-5
		c-9.394-2.597-22.674-11.03-28-12c-3.605-0.657-8.271,1.547-12,1c-4.318-0.634-7.86-4.244-12-5c-16.464-3.006-24.19-3.205-38-4
		c-7.494-0.432-13.698-4.787-20-5c-22.154-0.75-40.576,1.411-63,2c-103.225,2.709-193.204,37.324-261,84
		c-36.529,25.149-71.555,50.089-101,86c-40.938,49.927-78.072,104.963-99,171c-11.072,34.938-24.748,81.997-26,122
		C781.563,1157.95,787.361,1181.448,774,1186z"/>
	<path fill="#D2A2BD" d="M1130,1322c-32.094-41.504-75.266-77.109-121-99c-25.022-16.514-25.504-58.778-33-94
		c-12.925-60.734-25.437-123.708-39-186c-2.493-11.451-9.082-31.587-7-39c3.291-11.72,39.137-14.111,53-17
		c10.614-2.212,17.914-3.771,29-6c7.406-1.49,22.405-7.925,30-5c9.141,3.521,12.394,39.894,15,52
		c26.877,124.851,50.389,242.677,76,365C1135.375,1304.343,1144.008,1329.818,1130,1322z M986,892c-9.813,2.007-47.443,7.637-48,14
		c-2.055,23.504,10.136,53.822,15,77c13.902,66.244,26.013,124.814,40,191c2.371,11.218,4.871,35.004,8,39
		c0.652,0.833,11.273,5.656,12,6c6.277,2.974,6.235,4.564,10,7c6.836,4.422,18.82,6.652,26,12c1.852,1.379,1.302,4.937,3,6
		c1.389,0.87,4.671-0.942,6,0c4.365,3.094,14.18,15.121,19,19c2.955,2.377,8.863,3.177,13,7c7.308,6.753,19.921,23.781,26,30
		c0.683,0.698,11.716,8.715,11,9c6.496-2.593-0.521-15.64,0-12c-0.783-5.457-1.22-10.222-2-14
		c-24.478-118.564-49.944-235.256-73-351c-2.783-13.969-6.124-49.524-18-50C1020.58,881.462,1004.662,888.184,986,892z"/>
	<path fill="#FFFFFF" d="M984,2238c3.977,4.053,0.926,17.086,1,17c-2.638,3.07-11.322-0.932-13,1c-3.339,3.843,0,25.007,0,32
		c0,9.09-1.928,26.511,1,30c4.127,4.918,12.126-0.069,14,2c0.152,0.168,1.519,18.975,0,21c-4.424,5.901-25.576,2.107-31-1
		c-12.64-7.243-11-28.963-11-52c0-13.619,2.899-27.404,0-31c-1.083-1.343-8.158-1.313-8-1c-1.837-3.638-2.211-13.568,0-18
		c-0.156,0.313,7.115,0.101,8-1c4.516-5.618-4.381-28.619,0-33c2.424-2.424,27.7,0.7,27,0c5.891,5.891-6.146,25.924,0,33
		C973.725,2238.986,981.064,2235.009,984,2238z"/>
	<path fill="#FFFFFF" d="M710,2244c12.385-13.958,34.703-10.636,38,8c2.015,11.388,0,32.523,0,45c0,12.53,2.392,42.608,0,45
		c-2.548,2.548-25.72,0.534-27-1c-3.909-4.686,0-31.802,0-44c0-13.943,4.037-55.172-11-35c-1.789,9.418-1,22.119-1,40
		c0,2.909,3.145,35.855,0,39c-2.432,2.432-25.175-0.01-26-1c-2.061-2.473,0-26.943,0-35c0-25.963,0-44.793,0-70
		c0-3.518-2.248-33.752,0-36c3.467-3.467,26.529,1.635,26,1C716.487,2208.985,702.549,2233.595,710,2244z"/>
	<path fill="#FFFFFF" d="M928,2341c-1.287,1.544-24.873,2.549-27,0c-5.045-6.046,0-39.072,0-52c0-10.875-4.223-46.777,0-51
		c0.49-0.49,25.328-1.672,27,0c3.789,3.789,0,41.074,0,51C928,2304.843,932.223,2335.933,928,2341z"/>
	<path fill="#FFFFFF" d="M632,673c4.825-0.533,19.738,17.326,19,22c-0.519,3.283-11.705,7.89-11,8
		C635.817,702.349,618.435,674.498,632,673z"/>
	<path fill="#FFFFFF" d="M290,884c4.535-0.49,19.682,17.426,19,22c-0.478,3.208-11.547,7.917-11,8
		C289.623,912.726,278.9,885.201,290,884z"/>
	<path fill="#FFFFFF" d="M197,941c13.517-5.426,24.373,24.31,31,35c7.427,11.98,19.32,23.783,20,33c0.587,7.95-5.644,11.887-7,12
		c-8.276,0.69-19.733-26.748-26-37C209.695,975.32,185.014,945.812,197,941z"/>
	<path fill="#FFFFFF" d="M564,2235c39.313,0.822,27.837,43.841,31,88c0.781,10.9,8.708,19-9,19c-5.034,0-11.061,0.603-12,0
		c-6.368-4.086,1.438-13.438-8-4c-26.241,26.242-47.526-21.281-30-44c3.32-4.305,9.686-8.071,15-11c2.109-1.162,15.883-5.855,17-8
		c3.02-5.795-0.522-18.232-5-19c-12.113-2.076-1.145,11.514-8,17c-0.876,0.701-23.41,1.59-25,0c-8.077-8.077,9.091-29.913,12-32
		C547.923,2236.75,558.632,2234.888,564,2235z"/>
	<path fill="#FFFFFF" d="M639,2235c7.028-0.105,14.614,1.579,19,4c4.988,2.753,23.212,28.918,14,40c-1.543,1.855-25.798,2.201-27,1
		c-5.539-5.539,5.889-23.809-5-24c-7.762-0.137-7.603,64.939-2,67c12.735,4.685,3.342-20.342,7-24c1.981-1.98,25.677-0.27,26,0
		c3.354,2.799,0.465,23.272-1,27c-9.114,23.195-55.931,25.398-62-4c-6.133-29.708-3.063-77.13,18-85
		C629.837,2235.566,634.657,2235.065,639,2235z"/>
	<path fill="#FFFFFF" d="M830,2235c12.883,0.168,11.131,10.323,16,11c5.541,0.771,10.352-11.912,23-11c26.123,1.884,18,54.648,18,86
		c0,4.175,1.15,19.205-1,21c-1.549,1.292-24.915,1.085-26,0c-3.738-3.738,0-39.505,0-44c0-8.449,3.311-38.943-2-42
		c-3.752-2.16-8.906,4.778-9,5c-3.559,8.447,0,23.324,0,41c0,13.344,3.865,36.135,0,40c-2.797,2.797-25.482,1.518-27,0
		c-3.004-3.004,0-37.552,0-44c0-12.308,3.035-39.102-2-42c-3.624-2.086-8.885,4.726-9,5c-3.127,7.422,0,45.354,0,61
		c0,4.576,1.83,18.17,0,20c0.191-0.191-23.188,2.346-26,0c-5.372-4.482-1-42.337-1-52c0-11.603,0-19.15,0-26
		c0-6.42-3.893-22.107,0-26c0.01-0.01,26.454-1.443,27,2C812.113,2247.017,820.455,2234.876,830,2235z"/>
	<path fill="#D2A2BD" d="M854,1274c17.008-0.836,11.578,4.547,12,27c0.898,47.727,3.748,94.649,3,135
		c-1.439,77.635,8.164,158.93,5,234c-0.389,9.232,2.41,18.396,0,23c-3.889,7.427-37.53,8.604-40,7c-8.758-5.688-10.979-67.089-16-86
		c-23.291-87.724-34.578-187.153-57-281c-2.785-11.659-7.822-38.398-6-43c3.485-8.8,33.181-8.494,47-10
		C824.342,1277.565,838.154,1274.779,854,1274z M804,1283c-10.895,1.269-43.74,2.411-46,6c-2.1,3.335,6.866,26.432,8,31
		c15.74,63.409,14.31,107.924,30,171c6.677,26.841,14.732,66.146,22,99c6.289,28.43,10.195,61.121,17,89
		c1.969,8.067,1.092,14.93,4,17c2.797,1.991,29.6,0.006,32-4c3.762-6.277-3.417-31.215-3-41c2.381-55.856-4.502-110.178-1-166
		c3.084-49.158-6.121-99.616-5-143c0.324-12.522,1.841-35.416,1-48c-0.956-14.309-0.936-15.34-9-16
		C838.475,1276.729,825.104,1280.543,804,1283z"/>
	<path fill="#D2A2BD" d="M0,1455c45.085-31.48,141.853-39.299,189-5c10.484,7.627,25.056,25.259,33,36
		c5.246,7.094,9.719,15.972,14,16c7.635,0.05,28.64-27.432,41-36c42.951-29.776,119.802-20.157,166,3
		c8.37,4.195,27.449,16.275,29,27c0.883,6.105-2.376,11.214-3,17c-4.382,40.674-2.234,87.742,7,123c4.562,17.416,13.39,34.227,18,51
		c2.39,8.696-0.314,17.592-6,26c-15.594,23.062-41.217,47.495-64,67c-24.352,20.848-48.49,42.467-71,59
		c-39.38,28.924-77.415,54.323-115,90c-5.488,5.209-29.209,36.642-39,36c-5.176-0.339-18.003-20.29-24-28
		c-53.473-68.755-116.688-128.725-175-190c0-2.333,0-4.667,0-7c52.133,59.128,121.712,118.55,170,182
		c6.353,8.347,23.262,37.009,30,37c7.697-0.01,29.195-28.735,35-34c48.442-43.937,98.554-76.108,148-116
		c33.717-27.202,76.023-62.612,101-98c13.514-19.147-3.579-40.938-10-62c-6.273-20.58-9.101-56.789-11-82
		c-0.671-8.907-1.838-21.369-1-29c1.096-9.982,7.668-35.751,6-43c-1.598-6.944-23.54-20.149-30-23
		c-31.882-14.066-102.797-27.975-144-11c-2.402,0.989-13.059,7.18-17,10c-11.94,8.545-30.929,38.4-43,37
		c-9.241-1.072-22.756-30.558-35-43c-22.745-23.113-80.652-40.1-131-31c-4.464,0.807-8.711,4.72-14,6
		c-23.132,5.598-34.02,7.838-54,21C0,1459,0,1457,0,1455z"/>
	<path fill="#D2A2BD" d="M901,1734c17.65,0.773,14.805,29.536,17,48c2.053,17.257,8.42,39.654,5,49c-3.374,9.22-41.098,9.913-51,11
		c-6.568,0.721-48.51,10.163-55,4c-4.713-4.475-5.258-43.688-6-50c-1.045-8.883-8.619-41.299-4-49c3.3-5.502,32.328-5.437,46-7
		C870.327,1738.019,887.5,1733.408,901,1734z M855,1744c-12.556,1.441-40.932,1.862-44,5c-5.85,5.98,3.117,39.548,4,47
		c1.184,9.991-0.197,42.303,6,47c4.82,3.654,39.223-5.14,47-6c7.961-0.881,44.438-0.088,49-7c2.822-4.276-3.361-34.827-5-47
		c-2.667-19.81-1.425-42.663-12-44C887.508,1737.421,873.17,1741.914,855,1744z"/>
</g>
</svg>
